<?xml version="1.0" encoding="UTF-8"?>
<svg xmlns="http://www.w3.org/2000/svg" xmlns:xlink="http://www.w3.org/1999/xlink" width="64px" height="64px" viewBox="0 0 64 64" version="1.1">
<g id="surface1">
<path style=" stroke:none;fill-rule:nonzero;fill:rgb(100%,100%,100%);fill-opacity:1;" d="M 36.167969 64.167969 C 24.109375 64.167969 12.140625 64.167969 0.167969 64.167969 C 0.167969 42.832031 0.167969 21.5 0.167969 0.167969 C 21.5 0.167969 42.832031 0.167969 64.167969 0.167969 C 64.167969 21.5 64.167969 42.832031 64.167969 64.167969 C 54.859375 64.167969 45.554688 64.167969 36.167969 64.167969 M 47.914062 53.308594 C 47.960938 53.28125 47.992188 53.242188 48.121094 53.167969 C 49.191406 52.167969 50.261719 51.167969 51.433594 50.117188 C 52.179688 49.136719 52.925781 48.160156 53.769531 47.121094 C 55.113281 45.183594 56.164062 43.101562 56.925781 40.753906 C 57.28125 39.167969 57.636719 37.585938 58.015625 35.867188 C 58.066406 34.152344 58.292969 32.421875 58.128906 30.730469 C 57.914062 28.542969 57.613281 26.316406 56.945312 24.238281 C 55.289062 19.109375 52.285156 14.855469 47.976562 11.550781 C 45.484375 9.636719 42.761719 8.152344 39.773438 7.261719 C 36.671875 6.335938 33.5 5.820312 30.210938 6.136719 C 27.972656 6.351562 25.761719 6.648438 23.640625 7.375 C 18.53125 9.128906 14.296875 12.109375 10.980469 16.410156 C 7.492188 20.929688 5.757812 26.054688 5.515625 31.703125 C 5.410156 34.253906 5.800781 36.761719 6.425781 39.246094 C 7.457031 43.347656 9.492188 46.886719 12.273438 50.007812 C 14.902344 52.957031 18.019531 55.273438 21.707031 56.765625 C 23.890625 57.652344 26.113281 58.398438 28.597656 58.601562 C 30.453125 58.621094 32.308594 58.644531 34.3125 58.667969 C 35.765625 58.390625 37.214844 58.113281 38.777344 57.835938 C 38.851562 57.828125 38.925781 57.820312 39.097656 57.816406 C 39.175781 57.769531 39.257812 57.722656 39.464844 57.671875 C 40.925781 57.0625 42.382812 56.453125 43.960938 55.828125 C 44.585938 55.441406 45.210938 55.054688 45.949219 54.65625 C 46.246094 54.4375 46.542969 54.222656 46.933594 53.960938 C 47.066406 53.855469 47.199219 53.753906 47.441406 53.652344 C 47.574219 53.546875 47.710938 53.441406 47.914062 53.308594 Z M 47.914062 53.308594 "/>
<path style=" stroke:none;fill-rule:nonzero;fill:rgb(77.64706%,90.980393%,98.431373%);fill-opacity:1;" d="M 28.496094 58.507812 C 26.113281 58.398438 23.890625 57.652344 21.707031 56.765625 C 18.019531 55.273438 14.902344 52.957031 12.273438 50.007812 C 9.492188 46.886719 7.457031 43.347656 6.425781 39.246094 C 5.800781 36.761719 5.410156 34.253906 5.515625 31.703125 C 5.757812 26.054688 7.492188 20.929688 10.980469 16.410156 C 14.296875 12.109375 18.53125 9.128906 23.640625 7.375 C 25.761719 6.648438 27.972656 6.351562 30.210938 6.136719 C 33.5 5.820312 36.671875 6.335938 39.773438 7.261719 C 42.761719 8.152344 45.484375 9.636719 47.976562 11.550781 C 52.285156 14.855469 55.289062 19.109375 56.945312 24.238281 C 57.613281 26.316406 57.914062 28.542969 58.128906 30.730469 C 58.292969 32.421875 58.066406 34.152344 57.945312 35.921875 C 57.753906 35.804688 57.546875 35.640625 57.523438 35.453125 C 57.425781 34.707031 57.292969 33.945312 57.347656 33.203125 C 57.429688 31.992188 57.0625 30.878906 56.859375 29.71875 C 56.546875 27.921875 55.558594 26.574219 54.308594 25.28125 C 53.710938 24.542969 53.164062 23.820312 52.550781 23.164062 C 51.949219 22.523438 51.277344 21.945312 50.597656 21.300781 C 49.839844 20.285156 49.195312 19.238281 48.390625 18.335938 C 45.058594 14.589844 41.015625 12.046875 36.027344 11.078125 C 31.984375 10.289062 28.027344 10.535156 24.191406 11.941406 C 20.410156 13.332031 17.222656 15.613281 14.636719 18.75 C 10.773438 23.445312 9.507812 28.882812 9.84375 34.8125 C 9.851562 34.933594 9.953125 35.054688 10 35.246094 C 10.394531 39.269531 11.808594 42.816406 14.175781 46 C 16.21875 48.742188 18.925781 50.671875 21.832031 52.4375 C 22.117188 52.769531 22.390625 53.050781 22.691406 53.382812 C 23.085938 53.789062 23.460938 54.144531 23.855469 54.550781 C 24.308594 55.011719 24.738281 55.421875 25.191406 55.882812 C 25.328125 56.054688 25.433594 56.183594 25.550781 56.300781 C 26.226562 56.960938 26.773438 57.789062 27.878906 57.855469 C 28.097656 57.867188 28.292969 58.28125 28.496094 58.507812 Z M 28.496094 58.507812 "/>
<path style=" stroke:none;fill-rule:nonzero;fill:rgb(74.509805%,87.843138%,95.294118%);fill-opacity:1;" d="M 50.636719 21.335938 C 51.277344 21.945312 51.949219 22.523438 52.550781 23.164062 C 53.164062 23.820312 53.710938 24.542969 54.316406 25.347656 C 54.730469 26.628906 55.195312 27.773438 55.472656 28.964844 C 55.828125 30.511719 56.113281 32.085938 56.28125 33.660156 C 56.449219 35.265625 56.414062 36.894531 56.515625 38.507812 C 56.5625 39.285156 56.722656 40.058594 56.835938 40.832031 C 56.164062 43.101562 55.113281 45.183594 53.71875 47.085938 C 54.035156 45.523438 54.421875 44.003906 54.75 42.472656 C 54.988281 41.371094 55.277344 40.253906 55.308594 39.136719 C 55.398438 35.648438 54.976562 32.210938 53.910156 28.878906 C 53.820312 28.59375 53.433594 28.402344 53.175781 28.101562 C 53.09375 27.714844 53.058594 27.378906 52.9375 27.074219 C 52.179688 25.15625 51.40625 23.25 50.636719 21.335938 Z M 50.636719 21.335938 "/>
<path style=" stroke:none;fill-rule:nonzero;fill:rgb(72.549021%,86.274511%,94.117647%);fill-opacity:1;" d="M 53.183594 28.167969 C 53.433594 28.402344 53.820312 28.59375 53.910156 28.878906 C 54.976562 32.210938 55.398438 35.648438 55.308594 39.136719 C 55.277344 40.253906 54.988281 41.371094 54.75 42.472656 C 54.421875 44.003906 54.035156 45.523438 53.671875 47.113281 C 52.925781 48.160156 52.179688 49.136719 51.386719 50.078125 C 51.472656 49.589844 51.507812 49.066406 51.769531 48.710938 C 52.953125 47.078125 53.15625 45.074219 53.765625 43.25 C 54.339844 41.515625 54.398438 39.574219 54.464844 37.71875 C 54.523438 36.09375 54.296875 34.457031 54.140625 32.832031 C 54.117188 32.59375 53.777344 32.386719 53.570312 32.09375 C 53.539062 31.679688 53.527344 31.335938 53.574219 30.984375 C 53.683594 30.785156 53.8125 30.578125 53.769531 30.417969 C 53.601562 29.828125 53.378906 29.253906 53.179688 28.613281 C 53.179688 28.421875 53.183594 28.296875 53.183594 28.167969 Z M 53.183594 28.167969 "/>
<path style=" stroke:none;fill-rule:nonzero;fill:rgb(76.47059%,89.803922%,97.254902%);fill-opacity:1;" d="M 56.878906 40.792969 C 56.722656 40.058594 56.5625 39.285156 56.515625 38.507812 C 56.414062 36.894531 56.449219 35.265625 56.28125 33.660156 C 56.113281 32.085938 55.828125 30.511719 55.472656 28.964844 C 55.195312 27.773438 54.730469 26.628906 54.339844 25.398438 C 55.558594 26.574219 56.546875 27.921875 56.859375 29.71875 C 57.0625 30.878906 57.429688 31.992188 57.347656 33.203125 C 57.292969 33.945312 57.425781 34.707031 57.523438 35.453125 C 57.546875 35.640625 57.753906 35.804688 57.933594 35.988281 C 57.636719 37.585938 57.28125 39.167969 56.878906 40.792969 Z M 56.878906 40.792969 "/>
<path style=" stroke:none;fill-rule:nonzero;fill:rgb(70.980394%,85.09804%,92.941177%);fill-opacity:1;" d="M 23.832031 54.5 C 23.460938 54.144531 23.085938 53.789062 22.726562 53.339844 C 22.933594 53.164062 23.132812 53.085938 23.386719 53.007812 C 23.636719 53.089844 23.832031 53.171875 24.023438 53.316406 C 24.449219 54.082031 24.742188 54.148438 25.21875 53.652344 C 25.351562 53.691406 25.4375 53.726562 25.523438 53.832031 C 25.757812 54.054688 25.972656 54.289062 26.230469 54.359375 C 28.539062 54.980469 30.855469 55.570312 33.207031 56.214844 C 34.484375 56.453125 35.714844 56.703125 36.957031 56.804688 C 37.515625 56.855469 38.097656 56.609375 38.734375 56.5 C 39.035156 56.5 39.269531 56.5 39.570312 56.5 C 39.925781 56.390625 40.210938 56.277344 40.566406 56.167969 C 41.089844 56.054688 41.542969 55.945312 42.039062 55.875 C 42.664062 55.894531 43.253906 55.871094 43.84375 55.847656 C 42.382812 56.453125 40.925781 57.0625 39.375 57.632812 C 39.1875 57.667969 39.09375 57.738281 39 57.8125 C 38.925781 57.820312 38.851562 57.828125 38.679688 57.789062 C 38.15625 57.660156 37.726562 57.546875 37.296875 57.507812 C 36.636719 57.449219 35.953125 57.53125 35.316406 57.390625 C 33.707031 57.03125 32.117188 56.582031 30.519531 56.167969 C 29.269531 55.847656 28.015625 55.523438 26.757812 55.210938 C 25.785156 54.964844 24.808594 54.734375 23.832031 54.5 Z M 23.832031 54.5 "/>
<path style=" stroke:none;fill-rule:nonzero;fill:rgb(70.980394%,85.09804%,92.941177%);fill-opacity:1;" d="M 53.585938 32.164062 C 53.777344 32.386719 54.117188 32.59375 54.140625 32.832031 C 54.296875 34.457031 54.523438 36.09375 54.464844 37.71875 C 54.398438 39.574219 54.339844 41.515625 53.765625 43.25 C 53.15625 45.074219 52.953125 47.078125 51.769531 48.710938 C 51.507812 49.066406 51.472656 49.589844 51.335938 50.101562 C 50.261719 51.167969 49.191406 52.167969 48.066406 53.117188 C 48.609375 52.25 49.226562 51.445312 49.796875 50.609375 C 50.601562 49.441406 51.492188 48.3125 51.671875 46.78125 C 51.726562 46.597656 51.78125 46.464844 51.894531 46.324219 C 52.082031 46.085938 52.253906 45.871094 52.328125 45.628906 C 52.503906 45.078125 52.632812 44.515625 52.773438 43.960938 C 53.074219 42.769531 53.445312 41.589844 53.644531 40.386719 C 53.851562 39.144531 53.953125 37.875 53.964844 36.621094 C 53.972656 36.027344 53.675781 35.429688 53.507812 34.757812 C 53.527344 33.839844 53.554688 33.003906 53.585938 32.164062 Z M 53.585938 32.164062 "/>
<path style=" stroke:none;fill-rule:nonzero;fill:rgb(73.725492%,87.058824%,94.901961%);fill-opacity:1;" d="M 23.855469 54.550781 C 24.808594 54.734375 25.785156 54.964844 26.757812 55.210938 C 28.015625 55.523438 29.269531 55.847656 30.519531 56.167969 C 32.117188 56.582031 33.707031 57.03125 35.316406 57.390625 C 35.953125 57.53125 36.636719 57.449219 37.296875 57.507812 C 37.726562 57.546875 38.15625 57.660156 38.625 57.789062 C 37.214844 58.113281 35.765625 58.390625 34.230469 58.605469 C 33.59375 58.332031 33.054688 58.082031 32.492188 57.917969 C 30.054688 57.207031 27.609375 56.527344 25.167969 55.832031 C 24.738281 55.421875 24.308594 55.011719 23.855469 54.550781 Z M 23.855469 54.550781 "/>
<path style=" stroke:none;fill-rule:nonzero;fill:rgb(76.47059%,89.803922%,97.254902%);fill-opacity:1;" d="M 25.191406 55.882812 C 27.609375 56.527344 30.054688 57.207031 32.492188 57.917969 C 33.054688 58.082031 33.59375 58.332031 34.15625 58.605469 C 32.308594 58.644531 30.453125 58.621094 28.546875 58.554688 C 28.292969 58.28125 28.097656 57.867188 27.878906 57.855469 C 26.773438 57.789062 26.226562 56.960938 25.550781 56.300781 C 25.433594 56.183594 25.328125 56.054688 25.191406 55.882812 Z M 25.191406 55.882812 "/>
<path style=" stroke:none;fill-rule:nonzero;fill:rgb(70.588237%,84.313726%,92.54902%);fill-opacity:1;" d="M 51.667969 46.832031 C 51.492188 48.3125 50.601562 49.441406 49.796875 50.609375 C 49.226562 51.445312 48.609375 52.25 48.011719 53.128906 C 47.992188 53.242188 47.960938 53.28125 47.820312 53.320312 C 47.59375 53.441406 47.464844 53.542969 47.332031 53.648438 C 47.199219 53.753906 47.066406 53.855469 46.824219 53.980469 C 46.421875 54.226562 46.128906 54.445312 45.835938 54.667969 C 45.210938 55.054688 44.585938 55.441406 43.902344 55.835938 C 43.253906 55.871094 42.664062 55.894531 42.074219 55.828125 C 42.492188 55.554688 42.925781 55.40625 43.320312 55.183594 C 44.214844 54.671875 45.140625 54.195312 45.960938 53.578125 C 46.867188 52.894531 47.742188 52.132812 48.492188 51.285156 C 49.199219 50.488281 49.726562 49.53125 50.34375 48.65625 C 50.773438 48.039062 51.222656 47.441406 51.667969 46.832031 Z M 51.667969 46.832031 "/>
<path style=" stroke:none;fill-rule:nonzero;fill:rgb(70.980394%,85.09804%,92.941177%);fill-opacity:1;" d="M 45.890625 54.660156 C 46.128906 54.445312 46.421875 54.226562 46.78125 54.003906 C 46.542969 54.222656 46.246094 54.4375 45.890625 54.660156 Z M 45.890625 54.660156 "/>
<path style=" stroke:none;fill-rule:nonzero;fill:rgb(70.980394%,85.09804%,92.941177%);fill-opacity:1;" d="M 47.386719 53.648438 C 47.464844 53.542969 47.59375 53.441406 47.785156 53.335938 C 47.710938 53.441406 47.574219 53.546875 47.386719 53.648438 Z M 47.386719 53.648438 "/>
<path style=" stroke:none;fill-rule:nonzero;fill:rgb(73.725492%,87.058824%,94.901961%);fill-opacity:1;" d="M 39.046875 57.8125 C 39.09375 57.738281 39.1875 57.667969 39.308594 57.636719 C 39.257812 57.722656 39.175781 57.769531 39.046875 57.8125 Z M 39.046875 57.8125 "/>
<path style=" stroke:none;fill-rule:nonzero;fill:rgb(99.215686%,99.215686%,99.607843%);fill-opacity:1;" d="M 53.175781 28.101562 C 53.183594 28.296875 53.179688 28.421875 53.101562 28.613281 C 52.75 28.675781 52.472656 28.699219 52.199219 28.671875 C 51.574219 28.609375 51.253906 28.839844 51.332031 29.507812 C 51.347656 29.632812 51.296875 29.769531 51.265625 29.988281 C 50.808594 29.988281 50.375 29.949219 49.949219 30.003906 C 49.753906 30.03125 49.582031 30.238281 49.382812 30.4375 C 49.355469 31.449219 49.339844 32.386719 49.253906 33.324219 C 48.542969 33.371094 48.660156 32.90625 48.660156 32.535156 C 48.660156 28.851562 48.664062 25.171875 48.664062 21.488281 C 48.664062 21.257812 48.640625 21.023438 48.628906 20.796875 C 46.960938 21.5 47.378906 22.976562 47.296875 24.324219 C 46.921875 24.292969 46.628906 24.242188 46.339844 24.257812 C 46.167969 24.265625 46 24.378906 45.78125 24.484375 C 45.410156 25.363281 45.085938 26.203125 44.730469 27.136719 C 44.542969 27.066406 44.195312 26.941406 43.835938 26.738281 C 43.828125 25.570312 43.828125 24.480469 43.828125 23.34375 C 43.027344 23.34375 42.347656 23.34375 41.625 23.347656 C 41.527344 23.386719 41.511719 23.433594 41.515625 23.574219 C 41.484375 25.871094 41.460938 28.089844 41.375 30.3125 C 40.679688 30.402344 40.488281 30.113281 40.492188 29.507812 C 40.515625 27.265625 40.503906 25.023438 40.503906 22.78125 C 40.503906 21.347656 40.503906 19.917969 40.503906 18.382812 C 39.9375 18.679688 39.46875 18.929688 38.996094 19.101562 C 38.996094 18.4375 38.996094 17.847656 38.996094 17.257812 C 38.890625 17.265625 38.789062 17.273438 38.683594 17.28125 C 38.683594 17.964844 38.683594 18.652344 38.671875 19.394531 C 38.542969 19.5625 38.445312 19.714844 38.304688 19.777344 C 37.585938 20.101562 37.4375 20.667969 37.484375 21.398438 C 37.535156 22.25 37.464844 23.109375 37.507812 23.964844 C 37.535156 24.507812 37.320312 24.722656 36.734375 24.707031 C 36.421875 24.75 36.183594 24.800781 35.898438 24.832031 C 35.796875 24.800781 35.734375 24.792969 35.671875 24.691406 C 35.613281 22.636719 35.988281 20.617188 34.980469 18.769531 C 34.898438 18.625 34.746094 18.519531 34.628906 18.394531 C 34.539062 18.519531 34.421875 18.628906 34.359375 18.765625 C 34.171875 19.171875 34.003906 19.589844 33.753906 20 C 33.066406 19.996094 32.453125 19.96875 31.847656 20.015625 C 31.667969 20.03125 31.363281 20.257812 31.363281 20.394531 C 31.328125 22.242188 31.339844 24.085938 31.339844 25.921875 C 31.742188 26.019531 32.035156 26.09375 32.34375 26.21875 C 32.378906 26.34375 32.394531 26.414062 32.390625 26.5625 C 32.421875 28.203125 32.472656 29.769531 32.515625 31.410156 C 32.558594 34.148438 32.613281 36.804688 32.65625 39.464844 C 32.664062 39.859375 32.710938 40.253906 33.222656 40.132812 C 33.417969 40.085938 33.679688 39.757812 33.683594 39.554688 C 33.699219 36.925781 33.675781 34.296875 33.675781 31.589844 C 33.679688 30.566406 33.664062 29.617188 33.667969 28.601562 C 33.671875 28.242188 33.664062 27.953125 33.667969 27.589844 C 33.683594 27.269531 33.652344 27.011719 33.695312 26.769531 C 33.734375 26.546875 33.816406 26.179688 33.953125 26.144531 C 34.546875 25.984375 34.539062 26.441406 34.550781 26.84375 C 34.671875 30.503906 34.789062 34.160156 34.910156 37.820312 C 34.929688 38.457031 34.925781 39.097656 35 39.730469 C 35.019531 39.886719 35.304688 40.128906 35.464844 40.125 C 35.628906 40.125 35.859375 39.902344 35.9375 39.722656 C 36.023438 39.539062 35.964844 39.289062 35.964844 39.066406 C 35.980469 34.988281 35.988281 30.910156 36.027344 26.835938 C 36.027344 26.585938 36.289062 26.339844 36.429688 26.09375 C 36.570312 26.324219 36.789062 26.535156 36.835938 26.78125 C 36.960938 27.402344 37.007812 28.039062 37.074219 28.734375 C 37.082031 28.917969 37.109375 29.042969 37.109375 29.207031 C 37.113281 29.332031 37.140625 29.414062 37.15625 29.574219 C 37.210938 30.320312 37.277344 30.996094 37.332031 31.710938 C 37.335938 31.777344 37.347656 31.804688 37.347656 31.898438 C 37.390625 32.308594 37.441406 32.652344 37.480469 33.0625 C 37.492188 33.304688 37.511719 33.480469 37.523438 33.730469 C 37.734375 37 37.992188 40.203125 38.15625 43.40625 C 38.234375 44.929688 37.675781 46.246094 36.578125 47.371094 C 35.738281 48.230469 34.933594 49.164062 34.3125 50.183594 C 33.542969 51.445312 33.90625 52.9375 33.78125 54.347656 C 33.703125 54.390625 33.675781 54.433594 33.585938 54.488281 C 32.566406 54.542969 31.617188 54.597656 30.636719 54.609375 C 30.238281 54.546875 29.875 54.523438 29.523438 54.421875 C 29.867188 51.492188 29.09375 49.105469 26.753906 47.273438 C 25.699219 46.449219 25.316406 45.183594 25.230469 43.875 C 25.175781 43.074219 25.21875 42.265625 25.269531 41.464844 C 25.4375 38.808594 25.628906 36.152344 25.832031 33.429688 C 25.914062 32.578125 25.976562 31.792969 26.070312 30.949219 C 26.152344 30.320312 26.199219 29.746094 26.273438 29.113281 C 26.363281 28.253906 26.398438 27.453125 26.511719 26.664062 C 26.546875 26.433594 26.8125 26.234375 26.984375 26.023438 C 27 26.023438 27.007812 25.996094 27.011719 26.039062 C 27.0625 26.101562 27.113281 26.121094 27.21875 26.1875 C 27.296875 26.980469 27.332031 27.722656 27.339844 28.46875 C 27.367188 32.253906 27.382812 36.042969 27.40625 39.890625 C 28.164062 40.328125 28.417969 40.21875 28.445312 39.460938 C 28.460938 38.972656 28.425781 38.488281 28.433594 37.921875 C 28.527344 34.621094 28.601562 31.394531 28.703125 28.117188 C 28.722656 27.820312 28.714844 27.578125 28.730469 27.28125 C 28.742188 27.152344 28.730469 27.074219 28.746094 26.941406 C 28.761719 26.753906 28.75 26.625 28.765625 26.449219 C 28.804688 26.320312 28.820312 26.246094 28.902344 26.15625 C 29.144531 26.121094 29.324219 26.105469 29.546875 26.152344 C 29.621094 26.566406 29.675781 26.921875 29.679688 27.277344 C 29.695312 31.464844 29.703125 35.648438 29.707031 39.875 C 29.734375 39.953125 29.773438 39.988281 29.820312 40.011719 C 29.832031 40 29.808594 40.019531 29.824219 40.058594 C 29.894531 40.109375 29.945312 40.117188 30.066406 40.140625 C 30.585938 40.210938 30.699219 39.96875 30.707031 39.5625 C 30.777344 36.816406 30.859375 34.074219 30.953125 31.289062 C 30.960938 31.222656 30.953125 31.195312 30.960938 31.09375 C 30.984375 30.234375 30.992188 29.449219 31.03125 28.621094 C 31.03125 28.273438 31 27.96875 30.984375 27.625 C 30.996094 27.554688 30.996094 27.527344 31 27.425781 C 31.003906 27.0625 31.003906 26.769531 31.003906 26.4375 C 30.703125 26.386719 30.46875 26.347656 30.226562 26.234375 C 30.199219 24.382812 30.183594 22.609375 30.171875 20.78125 C 30.121094 20.6875 30.070312 20.648438 30 20.570312 C 29.976562 20.535156 29.90625 20.5 29.914062 20.433594 C 29.867188 20.058594 29.8125 19.75 29.753906 19.429688 C 29.75 19.421875 29.742188 19.402344 29.730469 19.34375 C 29.488281 18.355469 29.269531 17.421875 29.027344 16.496094 C 29 16.378906 28.867188 16.289062 28.792969 16.105469 C 28.800781 15.15625 28.800781 14.289062 28.800781 13.417969 C 28.699219 13.425781 28.597656 13.429688 28.496094 13.4375 C 28.496094 14.34375 28.496094 15.25 28.445312 16.203125 C 28.042969 17.386719 27.691406 18.527344 27.328125 19.734375 C 27.324219 19.976562 27.332031 20.15625 27.328125 20.371094 C 27.3125 20.410156 27.316406 20.492188 27.324219 20.496094 C 27.328125 20.496094 27.320312 20.484375 27.28125 20.507812 C 27.183594 20.632812 27.125 20.734375 27.054688 20.910156 C 27.046875 22.046875 27.058594 23.105469 27.054688 24.222656 C 27.046875 24.351562 27.058594 24.425781 27.050781 24.550781 C 27.015625 24.675781 27 24.746094 26.929688 24.8125 C 26.707031 24.742188 26.542969 24.679688 26.351562 24.558594 C 26.019531 23.792969 25.707031 23.085938 25.398438 22.378906 C 25.332031 22.390625 25.269531 22.402344 25.207031 22.417969 C 25.007812 23.148438 24.8125 23.878906 24.550781 24.621094 C 24.378906 24.816406 24.238281 24.984375 24.175781 25.179688 C 24.089844 25.449219 24.0625 25.734375 23.945312 25.996094 C 23.808594 25.699219 23.734375 25.425781 23.667969 25.148438 C 23.625 24.964844 23.625 24.636719 23.546875 24.621094 C 22.765625 24.4375 23.058594 23.824219 22.996094 23.351562 C 22.96875 23.140625 22.941406 22.769531 22.855469 22.753906 C 22.140625 22.613281 22.300781 22.070312 22.339844 21.640625 C 22.402344 20.960938 22.128906 20.765625 21.484375 20.8125 C 20.824219 20.859375 20.152344 20.867188 19.492188 20.8125 C 18.816406 20.753906 18.601562 21.011719 18.65625 21.660156 C 18.679688 21.96875 18.644531 22.511719 18.496094 22.566406 C 17.742188 22.84375 17.839844 23.441406 17.832031 24.003906 C 17.816406 25.167969 17.832031 26.332031 17.828125 27.574219 C 17.800781 28.679688 17.78125 29.703125 17.707031 30.742188 C 17.429688 30.734375 17.207031 30.710938 16.988281 30.609375 C 16.992188 29.894531 17.007812 29.261719 16.992188 28.628906 C 16.945312 26.746094 17.378906 27.039062 15.324219 26.992188 C 14.824219 26.980469 14.640625 27.148438 14.652344 27.65625 C 14.679688 28.8125 14.628906 29.972656 14.667969 31.128906 C 14.691406 31.824219 14.453125 32.121094 13.734375 31.898438 C 13.714844 30.230469 13.714844 28.632812 13.714844 27.015625 C 12.972656 27.015625 12.347656 27.015625 11.644531 27.015625 C 11.644531 29.738281 11.644531 32.410156 11.644531 35.175781 C 11.042969 35.175781 10.527344 35.175781 10.007812 35.175781 C 9.953125 35.054688 9.851562 34.933594 9.84375 34.8125 C 9.507812 28.882812 10.773438 23.445312 14.636719 18.75 C 17.222656 15.613281 20.410156 13.332031 24.191406 11.941406 C 28.027344 10.535156 31.984375 10.289062 36.027344 11.078125 C 41.015625 12.046875 45.058594 14.589844 48.390625 18.335938 C 49.195312 19.238281 49.839844 20.285156 50.597656 21.300781 C 51.40625 23.25 52.179688 25.15625 52.9375 27.074219 C 53.058594 27.378906 53.09375 27.714844 53.175781 28.101562 Z M 53.175781 28.101562 "/>
<path style=" stroke:none;fill-rule:nonzero;fill:rgb(29.411766%,44.313726%,58.039218%);fill-opacity:1;" d="M 25.8125 33.496094 C 25.628906 36.152344 25.4375 38.808594 25.269531 41.464844 C 25.21875 42.265625 25.175781 43.074219 25.230469 43.875 C 25.316406 45.183594 25.699219 46.449219 26.753906 47.273438 C 29.09375 49.105469 29.867188 51.492188 29.457031 54.40625 C 28.09375 54.234375 26.808594 54 25.523438 53.765625 C 25.4375 53.726562 25.351562 53.691406 25.175781 53.609375 C 24.734375 53.460938 24.382812 53.355469 24.027344 53.25 C 23.832031 53.171875 23.636719 53.089844 23.347656 52.964844 C 22.777344 52.738281 22.300781 52.5625 21.824219 52.382812 C 18.925781 50.671875 16.21875 48.742188 14.175781 46 C 11.808594 42.816406 10.394531 39.269531 10 35.246094 C 10.527344 35.175781 11.042969 35.175781 11.644531 35.175781 C 11.644531 32.410156 11.644531 29.738281 11.644531 27.015625 C 12.347656 27.015625 12.972656 27.015625 13.714844 27.015625 C 13.714844 28.632812 13.714844 30.230469 13.714844 31.972656 C 13.71875 32.621094 13.71875 33.117188 13.71875 33.628906 C 14.117188 33.652344 14.382812 33.664062 14.65625 33.753906 C 14.667969 34.632812 14.660156 35.433594 14.6875 36.230469 C 14.691406 36.363281 14.824219 36.492188 14.898438 36.621094 C 15.03125 36.507812 15.273438 36.394531 15.273438 36.285156 C 15.269531 35.410156 15.222656 34.539062 15.191406 33.589844 C 15.195312 33.207031 15.195312 32.90625 15.195312 32.605469 C 15.195312 30.746094 15.195312 30.746094 16.984375 30.6875 C 17.207031 30.710938 17.429688 30.734375 17.777344 30.777344 C 17.996094 31.0625 18.160156 31.324219 18.167969 31.589844 C 18.195312 32.695312 18.179688 33.800781 18.179688 34.90625 C 18.179688 35.472656 18.179688 36.035156 18.179688 36.59375 C 18.703125 36.648438 19.078125 36.683594 19.339844 36.710938 C 19.730469 37.167969 19.035156 38.140625 20.242188 37.996094 C 20.613281 38.003906 20.910156 38.003906 21.25 38.003906 C 21.25 36.664062 21.25 35.402344 21.269531 34.066406 C 21.304688 33.003906 21.328125 32.011719 21.425781 31.019531 C 22.109375 31.011719 22.722656 31.003906 23.398438 31.007812 C 23.582031 31.234375 23.777344 31.441406 23.804688 31.667969 C 23.863281 32.097656 23.851562 32.542969 23.816406 32.980469 C 23.773438 33.515625 23.96875 33.753906 24.574219 33.667969 C 25 33.4375 25.34375 33.019531 25.8125 33.496094 Z M 25.8125 33.496094 "/>
<path style=" stroke:none;fill-rule:nonzero;fill:rgb(67.843139%,81.960785%,90.980393%);fill-opacity:1;" d="M 21.832031 52.4375 C 22.300781 52.5625 22.777344 52.738281 23.292969 52.960938 C 23.132812 53.085938 22.933594 53.164062 22.703125 53.289062 C 22.390625 53.050781 22.117188 52.769531 21.832031 52.4375 Z M 21.832031 52.4375 "/>
<path style=" stroke:none;fill-rule:nonzero;fill:rgb(29.411766%,43.921569%,58.039218%);fill-opacity:1;" d="M 37.132812 29.164062 C 37.109375 29.042969 37.082031 28.917969 37.128906 28.734375 C 37.503906 29.03125 37.929688 29.339844 38.085938 29.753906 C 38.390625 30.554688 38.542969 31.414062 38.765625 32.265625 C 39.003906 32.230469 39.214844 32.199219 39.445312 32.246094 C 39.457031 33.097656 39.457031 33.871094 39.40625 34.660156 C 39.324219 34.753906 39.292969 34.828125 39.257812 34.90625 C 39.347656 34.925781 39.441406 34.945312 39.601562 34.96875 C 40.316406 35.066406 40.589844 34.800781 40.515625 34.144531 C 40.484375 33.847656 40.511719 33.542969 40.585938 33.234375 C 40.9375 33.210938 41.21875 33.199219 41.539062 33.222656 C 41.769531 33.339844 41.964844 33.421875 42.160156 33.578125 C 42.15625 34.203125 42.125 34.75 42.167969 35.292969 C 42.179688 35.480469 42.375 35.652344 42.484375 35.832031 C 42.617188 35.667969 42.753906 35.503906 42.945312 35.328125 C 43.882812 35.011719 43.917969 34.246094 44 33.5 C 44.105469 32.550781 44.222656 31.605469 44.386719 30.652344 C 44.519531 30.652344 44.59375 30.65625 44.683594 30.695312 C 44.726562 30.78125 44.769531 30.8125 44.824219 30.910156 C 44.863281 32.371094 44.773438 33.765625 44.871094 35.144531 C 44.988281 35.148438 45.109375 35.152344 45.226562 35.152344 C 45.273438 34.9375 45.316406 34.71875 45.417969 34.496094 C 46.003906 34.265625 46.53125 34.046875 47.066406 33.894531 C 46.9375 34.753906 47.242188 35.113281 48.058594 34.972656 C 48.195312 34.949219 48.335938 34.953125 48.550781 34.960938 C 48.988281 34.980469 49.363281 35.042969 49.703125 34.964844 C 49.886719 34.921875 50.011719 34.636719 50.242188 34.464844 C 50.636719 34.484375 50.957031 34.496094 51.257812 34.511719 C 51.335938 35.019531 51.402344 35.4375 51.464844 35.855469 C 51.574219 35.847656 51.679688 35.84375 51.789062 35.835938 C 51.789062 34.242188 51.789062 32.648438 51.789062 30.996094 C 52.472656 30.996094 52.996094 30.996094 53.515625 30.996094 C 53.527344 31.335938 53.539062 31.679688 53.570312 32.09375 C 53.554688 33.003906 53.527344 33.839844 53.484375 34.820312 C 53.367188 35.75 53.257812 36.539062 53.113281 37.375 C 52.828125 38.394531 52.578125 39.363281 52.289062 40.375 C 51.4375 42.050781 50.625 43.6875 49.769531 45.355469 C 47.296875 48.75 44.203125 51.285156 40.339844 52.828125 C 38.25 53.667969 36.101562 54.296875 33.820312 54.335938 C 33.90625 52.9375 33.542969 51.445312 34.3125 50.183594 C 34.933594 49.164062 35.738281 48.230469 36.578125 47.371094 C 37.675781 46.246094 38.234375 44.929688 38.15625 43.40625 C 37.992188 40.203125 37.734375 37 37.5625 33.691406 C 37.570312 33.386719 37.53125 33.191406 37.492188 33 C 37.441406 32.652344 37.390625 32.308594 37.371094 31.878906 C 37.382812 31.753906 37.363281 31.710938 37.34375 31.667969 C 37.277344 30.996094 37.210938 30.320312 37.191406 29.554688 C 37.199219 29.363281 37.167969 29.261719 37.132812 29.164062 Z M 37.132812 29.164062 "/>
<path style=" stroke:none;fill-rule:nonzero;fill:rgb(70.980394%,85.09804%,94.901961%);fill-opacity:1;" d="M 53.574219 30.984375 C 52.996094 30.996094 52.472656 30.996094 51.789062 30.996094 C 51.789062 32.648438 51.789062 34.242188 51.789062 35.835938 C 51.679688 35.84375 51.574219 35.847656 51.464844 35.855469 C 51.402344 35.4375 51.335938 35.019531 51.257812 34.511719 C 50.957031 34.496094 50.636719 34.484375 50.242188 34.390625 C 50.167969 33.214844 50.140625 32.121094 50.175781 31.027344 C 50.199219 30.410156 49.957031 30.238281 49.398438 30.363281 C 49.582031 30.238281 49.753906 30.03125 49.949219 30.003906 C 50.375 29.949219 50.808594 29.988281 51.265625 29.988281 C 51.296875 29.769531 51.347656 29.632812 51.332031 29.507812 C 51.253906 28.839844 51.574219 28.609375 52.199219 28.671875 C 52.472656 28.699219 52.75 28.675781 53.101562 28.675781 C 53.378906 29.253906 53.601562 29.828125 53.769531 30.417969 C 53.8125 30.578125 53.683594 30.785156 53.574219 30.984375 Z M 53.574219 30.984375 "/>
<path style=" stroke:none;fill-rule:nonzero;fill:rgb(69.01961%,83.137256%,91.764706%);fill-opacity:1;" d="M 52.332031 40.332031 C 52.578125 39.363281 52.828125 38.394531 53.167969 37.421875 C 53.664062 39.542969 52.917969 41.542969 52.585938 43.585938 C 52.433594 44.515625 52.089844 45.417969 51.832031 46.332031 C 51.78125 46.464844 51.726562 46.597656 51.671875 46.78125 C 51.222656 47.441406 50.773438 48.039062 50.34375 48.65625 C 49.726562 49.53125 49.199219 50.488281 48.492188 51.285156 C 47.742188 52.132812 46.867188 52.894531 45.960938 53.578125 C 45.140625 54.195312 44.214844 54.671875 43.320312 55.183594 C 42.925781 55.40625 42.492188 55.554688 42.035156 55.785156 C 41.542969 55.945312 41.089844 56.054688 40.511719 56.144531 C 39.957031 55.925781 39.648438 56.023438 39.5 56.5 C 39.269531 56.5 39.035156 56.5 38.691406 56.453125 C 36.863281 56.273438 35.15625 56.140625 33.445312 56.019531 C 33.355469 56.011719 33.257812 56.113281 33.167969 56.167969 C 30.855469 55.570312 28.539062 54.980469 26.230469 54.359375 C 25.972656 54.289062 25.757812 54.054688 25.523438 53.832031 C 26.808594 54 28.09375 54.234375 29.445312 54.484375 C 29.875 54.523438 30.238281 54.546875 30.648438 54.675781 C 30.984375 54.890625 31.273438 55.019531 31.574219 55.109375 C 34.890625 56.117188 38.199219 56.160156 41.488281 54.984375 C 43.308594 54.332031 45.054688 53.519531 46.425781 52.136719 C 47.480469 51.070312 48.464844 49.921875 49.367188 48.722656 C 50.054688 47.808594 50.703125 46.8125 51.117188 45.753906 C 51.71875 44.226562 52.105469 42.617188 52.542969 41.03125 C 52.597656 40.832031 52.40625 40.566406 52.332031 40.332031 Z M 52.332031 40.332031 "/>
<path style=" stroke:none;fill-rule:nonzero;fill:rgb(70.588237%,84.313726%,92.54902%);fill-opacity:1;" d="M 33.207031 56.214844 C 33.257812 56.113281 33.355469 56.011719 33.445312 56.019531 C 35.15625 56.140625 36.863281 56.273438 38.621094 56.453125 C 38.097656 56.609375 37.515625 56.855469 36.957031 56.804688 C 35.714844 56.703125 34.484375 56.453125 33.207031 56.214844 Z M 33.207031 56.214844 "/>
<path style=" stroke:none;fill-rule:nonzero;fill:rgb(69.01961%,83.137256%,91.764706%);fill-opacity:1;" d="M 24.023438 53.316406 C 24.382812 53.355469 24.734375 53.460938 25.128906 53.609375 C 24.742188 54.148438 24.449219 54.082031 24.023438 53.316406 Z M 24.023438 53.316406 "/>
<path style=" stroke:none;fill-rule:nonzero;fill:rgb(70.588237%,84.313726%,92.54902%);fill-opacity:1;" d="M 39.570312 56.5 C 39.648438 56.023438 39.957031 55.925781 40.445312 56.144531 C 40.210938 56.277344 39.925781 56.390625 39.570312 56.5 Z M 39.570312 56.5 "/>
<path style=" stroke:none;fill-rule:nonzero;fill:rgb(70.588237%,84.313726%,92.54902%);fill-opacity:1;" d="M 51.894531 46.324219 C 52.089844 45.417969 52.433594 44.515625 52.585938 43.585938 C 52.917969 41.542969 53.664062 39.542969 53.203125 37.371094 C 53.257812 36.539062 53.367188 35.75 53.492188 34.898438 C 53.675781 35.429688 53.972656 36.027344 53.964844 36.621094 C 53.953125 37.875 53.851562 39.144531 53.644531 40.386719 C 53.445312 41.589844 53.074219 42.769531 52.773438 43.960938 C 52.632812 44.515625 52.503906 45.078125 52.328125 45.628906 C 52.253906 45.871094 52.082031 46.085938 51.894531 46.324219 Z M 51.894531 46.324219 "/>
<path style=" stroke:none;fill-rule:nonzero;fill:rgb(30.19608%,44.705883%,58.823532%);fill-opacity:1;" d="M 30.9375 31.328125 C 30.859375 34.074219 30.777344 36.816406 30.707031 39.5625 C 30.699219 39.96875 30.585938 40.210938 30.042969 40.109375 C 29.910156 40.027344 29.863281 40.015625 29.808594 40.019531 C 29.808594 40.019531 29.832031 40 29.820312 39.976562 C 29.792969 39.898438 29.761719 39.859375 29.714844 39.835938 C 29.703125 35.648438 29.695312 31.464844 29.679688 27.277344 C 29.675781 26.921875 29.621094 26.566406 29.527344 26.097656 C 29.257812 26.050781 29.046875 26.113281 28.835938 26.171875 C 28.820312 26.246094 28.804688 26.320312 28.722656 26.460938 C 28.675781 26.683594 28.699219 26.84375 28.71875 27 C 28.730469 27.074219 28.742188 27.152344 28.683594 27.304688 C 28.636719 27.644531 28.65625 27.90625 28.675781 28.171875 C 28.601562 31.394531 28.527344 34.621094 28.378906 37.949219 C 28.257812 38.386719 28.152344 38.730469 28.179688 39.0625 C 28.230469 39.664062 28.023438 39.933594 27.40625 39.828125 C 27.382812 36.042969 27.367188 32.253906 27.339844 28.46875 C 27.332031 27.722656 27.296875 26.980469 27.199219 26.15625 C 27.097656 26.039062 27.054688 26.011719 27.007812 25.996094 C 27.007812 25.996094 27 26.023438 27 25.964844 C 27.015625 25.824219 27.027344 25.746094 27.085938 25.660156 C 27.101562 25.542969 27.070312 25.4375 27.03125 25.269531 C 27.007812 25.074219 26.996094 24.945312 26.984375 24.816406 C 27 24.746094 27.015625 24.675781 27.09375 24.542969 C 27.125 24.375 27.097656 24.269531 27.070312 24.164062 C 27.058594 23.105469 27.046875 22.046875 27.101562 20.898438 C 27.21875 20.703125 27.269531 20.59375 27.320312 20.484375 C 27.320312 20.484375 27.328125 20.496094 27.351562 20.484375 C 27.390625 20.457031 27.417969 20.433594 27.417969 20.429688 C 27.394531 20.394531 27.367188 20.363281 27.34375 20.335938 C 27.332031 20.15625 27.324219 19.976562 27.390625 19.734375 C 27.597656 19.871094 27.699219 20.097656 27.859375 20.269531 C 28.046875 20.476562 28.285156 20.640625 28.5 20.820312 C 28.667969 20.613281 28.972656 20.40625 28.972656 20.199219 C 28.964844 19.625 29.332031 19.511719 29.742188 19.402344 C 29.742188 19.402344 29.75 19.421875 29.726562 19.496094 C 29.769531 19.878906 29.835938 20.191406 29.90625 20.5 C 29.90625 20.5 29.976562 20.535156 30.007812 20.617188 C 30.078125 20.746094 30.125 20.789062 30.167969 20.832031 C 30.183594 22.609375 30.199219 24.382812 30.207031 26.300781 C 30.246094 26.792969 30.289062 27.136719 30.332031 27.550781 C 30.554688 27.964844 30.777344 28.316406 31.003906 28.667969 C 30.992188 29.449219 30.984375 30.234375 30.9375 31.109375 C 30.875 31.253906 30.886719 31.296875 30.9375 31.328125 Z M 30.9375 31.328125 "/>
<path style=" stroke:none;fill-rule:nonzero;fill:rgb(31.764707%,46.27451%,60.000002%);fill-opacity:1;" d="M 39.429688 32.167969 C 39.214844 32.199219 39.003906 32.230469 38.765625 32.265625 C 38.542969 31.414062 38.390625 30.554688 38.085938 29.753906 C 37.929688 29.339844 37.503906 29.03125 37.140625 28.671875 C 37.007812 28.039062 36.960938 27.402344 36.835938 26.78125 C 36.789062 26.535156 36.570312 26.324219 36.429688 26.09375 C 36.289062 26.339844 36.027344 26.585938 36.027344 26.835938 C 35.988281 30.910156 35.980469 34.988281 35.964844 39.066406 C 35.964844 39.289062 36.023438 39.539062 35.9375 39.722656 C 35.859375 39.902344 35.628906 40.125 35.464844 40.125 C 35.304688 40.128906 35.019531 39.886719 35 39.730469 C 34.925781 39.097656 34.929688 38.457031 34.910156 37.820312 C 34.789062 34.160156 34.671875 30.503906 34.550781 26.84375 C 34.539062 26.441406 34.546875 25.984375 33.953125 26.144531 C 33.816406 26.179688 33.734375 26.546875 33.695312 26.769531 C 33.652344 27.011719 33.683594 27.269531 33.628906 27.554688 C 33.488281 27.390625 33.40625 27.191406 33.316406 26.933594 C 33.011719 26.746094 32.714844 26.617188 32.414062 26.484375 C 32.394531 26.414062 32.378906 26.34375 32.359375 26.148438 C 32.375 25.703125 32.390625 25.382812 32.40625 25.054688 C 32.945312 25.027344 33.382812 25.003906 33.898438 24.992188 C 34.539062 24.925781 35.105469 24.855469 35.671875 24.78125 C 35.734375 24.792969 35.796875 24.800781 35.933594 24.875 C 36.285156 24.953125 36.5625 24.972656 36.917969 24.996094 C 37.789062 25 38.582031 25 39.507812 25 C 39.507812 27.132812 39.507812 29.148438 39.496094 31.234375 C 39.46875 31.59375 39.449219 31.882812 39.429688 32.167969 Z M 39.429688 32.167969 "/>
<path style=" stroke:none;fill-rule:nonzero;fill:rgb(71.372551%,85.490197%,95.686275%);fill-opacity:1;" d="M 21.347656 31.019531 C 21.328125 32.011719 21.304688 33.003906 21.203125 34.074219 C 20.859375 34.160156 20.59375 34.164062 20.328125 34.089844 C 20.328125 32.4375 20.34375 30.867188 20.308594 29.292969 C 20.300781 29.019531 20.132812 28.625 19.914062 28.5 C 19.253906 28.109375 18.53125 27.824219 17.835938 27.496094 C 17.832031 26.332031 17.816406 25.167969 17.832031 24.003906 C 17.839844 23.441406 17.742188 22.84375 18.496094 22.566406 C 18.644531 22.511719 18.679688 21.96875 18.65625 21.660156 C 18.601562 21.011719 18.816406 20.753906 19.492188 20.8125 C 20.152344 20.867188 20.824219 20.859375 21.484375 20.8125 C 22.128906 20.765625 22.402344 20.960938 22.339844 21.640625 C 22.300781 22.070312 22.140625 22.613281 22.855469 22.753906 C 22.941406 22.769531 22.96875 23.140625 22.996094 23.351562 C 23.058594 23.824219 22.765625 24.4375 23.546875 24.621094 C 23.625 24.636719 23.625 24.964844 23.667969 25.148438 C 23.734375 25.425781 23.808594 25.699219 23.941406 26.0625 C 23.957031 26.359375 23.933594 26.730469 23.851562 26.746094 C 23.238281 26.84375 23.355469 27.292969 23.320312 27.691406 C 23.308594 27.800781 23.191406 27.894531 22.96875 28.21875 C 22.902344 27.742188 22.84375 27.496094 22.839844 27.253906 C 22.824219 26.5625 22.835938 25.867188 22.832031 25.175781 C 22.828125 24.273438 22.425781 23.902344 21.347656 23.90625 C 21.347656 26.277344 21.347656 28.648438 21.347656 31.019531 Z M 21.347656 31.019531 "/>
<path style=" stroke:none;fill-rule:nonzero;fill:rgb(71.372551%,85.490197%,95.294118%);fill-opacity:1;" d="M 48.472656 34.945312 C 48.335938 34.953125 48.195312 34.949219 48.058594 34.972656 C 47.242188 35.113281 46.9375 34.753906 47.085938 33.832031 C 47.101562 32.992188 47.101562 32.285156 47.101562 31.523438 C 46.65625 31.492188 46.253906 31.464844 45.847656 31.359375 C 45.835938 29.007812 45.832031 26.726562 45.828125 24.445312 C 46 24.378906 46.167969 24.265625 46.339844 24.257812 C 46.628906 24.242188 46.921875 24.292969 47.296875 24.324219 C 47.378906 22.976562 46.960938 21.5 48.628906 20.796875 C 48.640625 21.023438 48.664062 21.257812 48.664062 21.488281 C 48.664062 25.171875 48.660156 28.851562 48.660156 32.535156 C 48.660156 32.90625 48.542969 33.371094 49.261719 33.398438 C 49.351562 33.90625 49.421875 34.355469 48.761719 34.417969 C 48.648438 34.429688 48.570312 34.761719 48.472656 34.945312 Z M 48.472656 34.945312 "/>
<path style=" stroke:none;fill-rule:nonzero;fill:rgb(67.843139%,81.960785%,90.980393%);fill-opacity:1;" d="M 52.289062 40.375 C 52.40625 40.566406 52.597656 40.832031 52.542969 41.03125 C 52.105469 42.617188 51.71875 44.226562 51.117188 45.753906 C 50.703125 46.8125 50.054688 47.808594 49.367188 48.722656 C 48.464844 49.921875 47.480469 51.070312 46.425781 52.136719 C 45.054688 53.519531 43.308594 54.332031 41.488281 54.984375 C 38.199219 56.160156 34.890625 56.117188 31.574219 55.109375 C 31.273438 55.019531 30.984375 54.890625 30.679688 54.714844 C 31.617188 54.597656 32.566406 54.542969 33.589844 54.554688 C 33.78125 54.746094 33.890625 54.976562 34.011719 54.980469 C 34.628906 55.019531 35.269531 55.085938 35.875 54.984375 C 37.601562 54.691406 39.382812 54.519531 41.015625 53.9375 C 43.003906 53.222656 44.804688 52.195312 46.355469 50.550781 C 47.746094 49.082031 48.800781 47.457031 49.890625 45.816406 C 49.957031 45.714844 49.84375 45.492188 49.8125 45.324219 C 50.625 43.6875 51.4375 42.050781 52.289062 40.375 Z M 52.289062 40.375 "/>
<path style=" stroke:none;fill-rule:nonzero;fill:rgb(71.372551%,85.490197%,95.294118%);fill-opacity:1;" d="M 39.507812 31.164062 C 39.507812 29.148438 39.507812 27.132812 39.507812 25 C 38.582031 25 37.789062 25 36.910156 24.949219 C 36.824219 24.839844 36.816406 24.777344 36.808594 24.714844 C 37.320312 24.722656 37.535156 24.507812 37.507812 23.964844 C 37.464844 23.109375 37.535156 22.25 37.484375 21.398438 C 37.4375 20.667969 37.585938 20.101562 38.304688 19.777344 C 38.445312 19.714844 38.542969 19.5625 38.714844 19.390625 C 38.847656 19.277344 38.921875 19.230469 38.996094 19.179688 C 39.46875 18.929688 39.9375 18.679688 40.503906 18.382812 C 40.503906 19.917969 40.503906 21.347656 40.503906 22.78125 C 40.503906 25.023438 40.515625 27.265625 40.492188 29.507812 C 40.488281 30.113281 40.679688 30.402344 41.390625 30.382812 C 41.488281 30.804688 41.5 31.152344 41.503906 31.574219 C 41.5 32.160156 41.5 32.671875 41.503906 33.183594 C 41.21875 33.199219 40.9375 33.210938 40.582031 33.148438 C 40.503906 32.777344 40.464844 32.476562 40.507812 32.183594 C 40.628906 31.382812 40.351562 31.003906 39.507812 31.164062 Z M 39.507812 31.164062 "/>
<path style=" stroke:none;fill-rule:nonzero;fill:rgb(55.686277%,72.156864%,85.09804%);fill-opacity:1;" d="M 21.425781 31.019531 C 21.347656 28.648438 21.347656 26.277344 21.347656 23.90625 C 22.425781 23.902344 22.828125 24.273438 22.832031 25.175781 C 22.835938 25.867188 22.824219 26.5625 22.839844 27.253906 C 22.84375 27.496094 22.902344 27.742188 22.96875 28.21875 C 23.191406 27.894531 23.308594 27.800781 23.320312 27.691406 C 23.355469 27.292969 23.238281 26.84375 23.851562 26.746094 C 23.933594 26.730469 23.957031 26.359375 24.007812 26.082031 C 24.0625 25.734375 24.089844 25.449219 24.175781 25.179688 C 24.238281 24.984375 24.378906 24.816406 24.632812 24.640625 C 25.308594 24.632812 25.84375 24.625 26.375 24.613281 C 26.542969 24.679688 26.707031 24.742188 26.929688 24.8125 C 26.996094 24.945312 27.007812 25.074219 27.019531 25.324219 C 27.027344 25.519531 27.035156 25.59375 27.039062 25.667969 C 27.027344 25.746094 27.015625 25.824219 26.988281 25.964844 C 26.8125 26.234375 26.546875 26.433594 26.511719 26.664062 C 26.398438 27.453125 26.363281 28.253906 26.1875 29.109375 C 25.21875 29.167969 24.359375 29.167969 23.464844 29.183594 C 23.378906 29.234375 23.351562 29.277344 23.335938 29.398438 C 23.335938 29.644531 23.335938 29.820312 23.335938 30.070312 C 23.332031 30.425781 23.332031 30.710938 23.332031 30.996094 C 22.722656 31.003906 22.109375 31.011719 21.425781 31.019531 Z M 21.425781 31.019531 "/>
<path style=" stroke:none;fill-rule:nonzero;fill:rgb(54.11765%,70.19608%,83.529413%);fill-opacity:1;" d="M 17.828125 27.574219 C 18.53125 27.824219 19.253906 28.109375 19.914062 28.5 C 20.132812 28.625 20.300781 29.019531 20.308594 29.292969 C 20.34375 30.867188 20.328125 32.4375 20.285156 34.128906 C 20.21875 35.492188 20.195312 36.738281 20.167969 37.984375 C 19.035156 38.140625 19.730469 37.167969 19.339844 36.710938 C 19.078125 36.683594 18.703125 36.648438 18.179688 36.59375 C 18.179688 36.035156 18.179688 35.472656 18.179688 34.90625 C 18.179688 33.800781 18.195312 32.695312 18.167969 31.589844 C 18.160156 31.324219 17.996094 31.0625 17.835938 30.761719 C 17.78125 29.703125 17.800781 28.679688 17.828125 27.574219 Z M 17.828125 27.574219 "/>
<path style=" stroke:none;fill-rule:nonzero;fill:rgb(64.705884%,79.215688%,89.019608%);fill-opacity:1;" d="M 49.769531 45.355469 C 49.84375 45.492188 49.957031 45.714844 49.890625 45.816406 C 48.800781 47.457031 47.746094 49.082031 46.355469 50.550781 C 44.804688 52.195312 43.003906 53.222656 41.015625 53.9375 C 39.382812 54.519531 37.601562 54.691406 35.875 54.984375 C 35.269531 55.085938 34.628906 55.019531 34.011719 54.980469 C 33.890625 54.976562 33.78125 54.746094 33.664062 54.550781 C 33.675781 54.433594 33.703125 54.390625 33.78125 54.347656 C 36.101562 54.296875 38.25 53.667969 40.339844 52.828125 C 44.203125 51.285156 47.296875 48.75 49.769531 45.355469 Z M 49.769531 45.355469 "/>
<path style=" stroke:none;fill-rule:nonzero;fill:rgb(45.882353%,62.352943%,76.47059%);fill-opacity:1;" d="M 41.511719 31.5 C 41.5 31.152344 41.488281 30.804688 41.460938 30.382812 C 41.460938 28.089844 41.484375 25.871094 41.546875 23.554688 C 41.625 23.429688 41.652344 23.390625 41.664062 23.34375 C 42.347656 23.34375 43.027344 23.34375 43.828125 23.34375 C 43.828125 24.480469 43.828125 25.570312 43.832031 26.816406 C 43.839844 28.1875 43.847656 29.402344 43.789062 30.625 C 43.125 30.421875 42.78125 30.554688 42.835938 31.269531 C 42.851562 31.457031 42.835938 31.644531 42.769531 31.832031 C 42.308594 31.71875 41.910156 31.609375 41.511719 31.5 Z M 41.511719 31.5 "/>
<path style=" stroke:none;fill-rule:nonzero;fill:rgb(71.372551%,85.490197%,95.686275%);fill-opacity:1;" d="M 33.824219 24.980469 C 33.382812 25.003906 32.945312 25.027344 32.40625 25.054688 C 32.390625 25.382812 32.375 25.703125 32.34375 26.09375 C 32.035156 26.09375 31.742188 26.019531 31.339844 25.921875 C 31.339844 24.085938 31.328125 22.242188 31.363281 20.394531 C 31.363281 20.257812 31.667969 20.03125 31.847656 20.015625 C 32.453125 19.96875 33.066406 19.996094 33.753906 20.078125 C 33.828125 21.765625 33.824219 23.375 33.824219 24.980469 Z M 33.824219 24.980469 "/>
<path style=" stroke:none;fill-rule:nonzero;fill:rgb(30.19608%,44.705883%,58.823532%);fill-opacity:1;" d="M 33.324219 26.992188 C 33.40625 27.191406 33.488281 27.390625 33.613281 27.625 C 33.664062 27.953125 33.671875 28.242188 33.621094 28.648438 C 33.59375 29.734375 33.625 30.699219 33.660156 31.664062 C 33.675781 34.296875 33.699219 36.925781 33.683594 39.554688 C 33.679688 39.757812 33.417969 40.085938 33.222656 40.132812 C 32.710938 40.253906 32.664062 39.859375 32.65625 39.464844 C 32.613281 36.804688 32.558594 34.148438 32.570312 31.375 C 32.699219 30.980469 32.816406 30.699219 32.824219 30.417969 C 32.847656 29.488281 32.835938 28.5625 32.828125 27.632812 C 32.824219 27.273438 32.832031 26.957031 33.324219 26.992188 Z M 33.324219 26.992188 "/>
<path style=" stroke:none;fill-rule:nonzero;fill:rgb(70.980394%,84.705883%,94.117647%);fill-opacity:1;" d="M 16.988281 30.609375 C 15.195312 30.746094 15.195312 30.746094 15.195312 32.605469 C 15.195312 32.90625 15.195312 33.207031 15.121094 33.589844 C 14.917969 33.671875 14.785156 33.675781 14.648438 33.679688 C 14.382812 33.664062 14.117188 33.652344 13.71875 33.628906 C 13.71875 33.117188 13.71875 32.621094 13.734375 32.046875 C 14.453125 32.121094 14.691406 31.824219 14.667969 31.128906 C 14.628906 29.972656 14.679688 28.8125 14.652344 27.65625 C 14.640625 27.148438 14.824219 26.980469 15.324219 26.992188 C 17.378906 27.039062 16.945312 26.746094 16.992188 28.628906 C 17.007812 29.261719 16.992188 29.894531 16.988281 30.609375 Z M 16.988281 30.609375 "/>
<path style=" stroke:none;fill-rule:nonzero;fill:rgb(56.470591%,72.156864%,85.09804%);fill-opacity:1;" d="M 43.851562 30.617188 C 43.847656 29.402344 43.839844 28.1875 43.839844 26.894531 C 44.195312 26.941406 44.542969 27.066406 44.730469 27.136719 C 45.085938 26.203125 45.410156 25.363281 45.78125 24.484375 C 45.832031 26.726562 45.835938 29.007812 45.777344 31.382812 C 45.582031 31.671875 45.355469 31.863281 45.347656 32.0625 C 45.3125 32.875 45.351562 33.6875 45.359375 34.503906 C 45.316406 34.71875 45.273438 34.9375 45.226562 35.152344 C 45.109375 35.152344 44.988281 35.148438 44.871094 35.144531 C 44.773438 33.765625 44.863281 32.371094 44.816406 30.867188 C 44.757812 30.71875 44.710938 30.691406 44.667969 30.660156 C 44.59375 30.65625 44.519531 30.652344 44.328125 30.648438 C 44.089844 30.636719 43.972656 30.628906 43.851562 30.617188 Z M 43.851562 30.617188 "/>
<path style=" stroke:none;fill-rule:nonzero;fill:rgb(55.686277%,72.156864%,85.09804%);fill-opacity:1;" d="M 33.898438 24.992188 C 33.824219 23.375 33.828125 21.765625 33.828125 20.078125 C 34.003906 19.589844 34.171875 19.171875 34.359375 18.765625 C 34.421875 18.628906 34.539062 18.519531 34.628906 18.394531 C 34.746094 18.519531 34.898438 18.625 34.980469 18.769531 C 35.988281 20.617188 35.613281 22.636719 35.671875 24.691406 C 35.105469 24.855469 34.539062 24.925781 33.898438 24.992188 Z M 33.898438 24.992188 "/>
<path style=" stroke:none;fill-rule:nonzero;fill:rgb(31.764707%,45.882353%,59.215689%);fill-opacity:1;" d="M 29.730469 19.34375 C 29.332031 19.511719 28.964844 19.625 28.972656 20.199219 C 28.972656 20.40625 28.667969 20.613281 28.5 20.820312 C 28.285156 20.640625 28.046875 20.476562 27.859375 20.269531 C 27.699219 20.097656 27.597656 19.871094 27.40625 19.667969 C 27.691406 18.527344 28.042969 17.386719 28.496094 16.207031 C 28.65625 16.171875 28.71875 16.179688 28.785156 16.183594 C 28.867188 16.289062 29 16.378906 29.027344 16.496094 C 29.269531 17.421875 29.488281 18.355469 29.730469 19.34375 Z M 29.730469 19.34375 "/>
<path style=" stroke:none;fill-rule:nonzero;fill:rgb(54.11765%,70.19608%,83.529413%);fill-opacity:1;" d="M 48.550781 34.960938 C 48.570312 34.761719 48.648438 34.429688 48.761719 34.417969 C 49.421875 34.355469 49.351562 33.90625 49.328125 33.398438 C 49.339844 32.386719 49.355469 31.449219 49.382812 30.4375 C 49.957031 30.238281 50.199219 30.410156 50.175781 31.027344 C 50.140625 32.121094 50.167969 33.214844 50.167969 34.382812 C 50.011719 34.636719 49.886719 34.921875 49.703125 34.964844 C 49.363281 35.042969 48.988281 34.980469 48.550781 34.960938 Z M 48.550781 34.960938 "/>
<path style=" stroke:none;fill-rule:nonzero;fill:rgb(45.09804%,61.56863%,75.294119%);fill-opacity:1;" d="M 23.5 29.167969 C 24.359375 29.167969 25.21875 29.167969 26.160156 29.171875 C 26.199219 29.746094 26.152344 30.320312 25.996094 30.945312 C 25.476562 31 25.070312 31 24.660156 30.9375 C 24.214844 30.585938 23.777344 30.292969 23.335938 30 C 23.335938 29.820312 23.335938 29.644531 23.371094 29.382812 C 23.453125 29.261719 23.484375 29.21875 23.5 29.167969 Z M 23.5 29.167969 "/>
<path style=" stroke:none;fill-rule:nonzero;fill:rgb(31.764707%,47.058824%,61.56863%);fill-opacity:1;" d="M 24.667969 30.996094 C 25.070312 31 25.476562 31 25.960938 31.003906 C 25.976562 31.792969 25.914062 32.578125 25.832031 33.429688 C 25.34375 33.019531 25 33.4375 24.574219 33.589844 C 24.5625 32.675781 24.613281 31.835938 24.667969 30.996094 Z M 24.667969 30.996094 "/>
<path style=" stroke:none;fill-rule:nonzero;fill:rgb(70.980394%,84.705883%,94.117647%);fill-opacity:1;" d="M 26.351562 24.558594 C 25.84375 24.625 25.308594 24.632812 24.699219 24.628906 C 24.8125 23.878906 25.007812 23.148438 25.207031 22.417969 C 25.269531 22.402344 25.332031 22.390625 25.398438 22.378906 C 25.707031 23.085938 26.019531 23.792969 26.351562 24.558594 Z M 26.351562 24.558594 "/>
<path style=" stroke:none;fill-rule:nonzero;fill:rgb(41.568628%,55.29412%,67.843139%);fill-opacity:1;" d="M 33.316406 26.933594 C 32.832031 26.957031 32.824219 27.273438 32.828125 27.632812 C 32.835938 28.5625 32.847656 29.488281 32.824219 30.417969 C 32.816406 30.699219 32.699219 30.980469 32.578125 31.296875 C 32.472656 29.769531 32.421875 28.203125 32.390625 26.5625 C 32.714844 26.617188 33.011719 26.746094 33.316406 26.933594 Z M 33.316406 26.933594 "/>
<path style=" stroke:none;fill-rule:nonzero;fill:rgb(67.843139%,81.960785%,90.980393%);fill-opacity:1;" d="M 30.335938 27.484375 C 30.289062 27.136719 30.246094 26.792969 30.21875 26.375 C 30.46875 26.347656 30.703125 26.386719 31.003906 26.4375 C 31.003906 26.769531 31.003906 27.0625 30.960938 27.421875 C 30.914062 27.488281 30.832031 27.5 30.769531 27.488281 C 30.585938 27.480469 30.460938 27.484375 30.335938 27.484375 Z M 30.335938 27.484375 "/>
<path style=" stroke:none;fill-rule:nonzero;fill:rgb(49.411765%,64.705884%,77.64706%);fill-opacity:1;" d="M 28.792969 16.105469 C 28.71875 16.179688 28.65625 16.171875 28.542969 16.164062 C 28.496094 15.25 28.496094 14.34375 28.496094 13.4375 C 28.597656 13.429688 28.699219 13.425781 28.800781 13.417969 C 28.800781 14.289062 28.800781 15.15625 28.792969 16.105469 Z M 28.792969 16.105469 "/>
<path style=" stroke:none;fill-rule:nonzero;fill:rgb(31.764707%,45.882353%,59.215689%);fill-opacity:1;" d="M 27.40625 39.890625 C 28.023438 39.933594 28.230469 39.664062 28.179688 39.0625 C 28.152344 38.730469 28.257812 38.386719 28.359375 38.023438 C 28.425781 38.488281 28.460938 38.972656 28.445312 39.460938 C 28.417969 40.21875 28.164062 40.328125 27.40625 39.890625 Z M 27.40625 39.890625 "/>
<path style=" stroke:none;fill-rule:nonzero;fill:rgb(76.47059%,89.803922%,97.254902%);fill-opacity:1;" d="M 38.996094 19.101562 C 38.921875 19.230469 38.847656 19.277344 38.730469 19.332031 C 38.683594 18.652344 38.683594 17.964844 38.683594 17.28125 C 38.789062 17.273438 38.890625 17.265625 38.996094 17.257812 C 38.996094 17.847656 38.996094 18.4375 38.996094 19.101562 Z M 38.996094 19.101562 "/>
<path style=" stroke:none;fill-rule:nonzero;fill:rgb(31.764707%,45.882353%,59.215689%);fill-opacity:1;" d="M 30.332031 27.550781 C 30.460938 27.484375 30.585938 27.480469 30.785156 27.523438 C 30.886719 27.613281 30.921875 27.644531 30.96875 27.664062 C 31 27.96875 31.03125 28.273438 31.03125 28.621094 C 30.777344 28.316406 30.554688 27.964844 30.332031 27.550781 Z M 30.332031 27.550781 "/>
<path style=" stroke:none;fill-rule:nonzero;fill:rgb(31.764707%,46.27451%,60.000002%);fill-opacity:1;" d="M 33.675781 31.589844 C 33.625 30.699219 33.59375 29.734375 33.605469 28.722656 C 33.664062 29.617188 33.679688 30.566406 33.675781 31.589844 Z M 33.675781 31.589844 "/>
<path style=" stroke:none;fill-rule:nonzero;fill:rgb(31.764707%,45.882353%,59.215689%);fill-opacity:1;" d="M 29.914062 20.433594 C 29.835938 20.191406 29.769531 19.878906 29.730469 19.503906 C 29.8125 19.75 29.867188 20.058594 29.914062 20.433594 Z M 29.914062 20.433594 "/>
<path style=" stroke:none;fill-rule:nonzero;fill:rgb(55.686277%,72.156864%,85.09804%);fill-opacity:1;" d="M 36.734375 24.707031 C 36.816406 24.777344 36.824219 24.839844 36.835938 24.945312 C 36.5625 24.972656 36.285156 24.953125 35.976562 24.894531 C 36.183594 24.800781 36.421875 24.75 36.734375 24.707031 Z M 36.734375 24.707031 "/>
<path style=" stroke:none;fill-rule:nonzero;fill:rgb(31.764707%,45.882353%,59.215689%);fill-opacity:1;" d="M 28.703125 28.117188 C 28.65625 27.90625 28.636719 27.644531 28.660156 27.359375 C 28.714844 27.578125 28.722656 27.820312 28.703125 28.117188 Z M 28.703125 28.117188 "/>
<path style=" stroke:none;fill-rule:nonzero;fill:rgb(31.764707%,45.882353%,59.215689%);fill-opacity:1;" d="M 28.902344 26.15625 C 29.046875 26.113281 29.257812 26.050781 29.484375 26.039062 C 29.324219 26.105469 29.144531 26.121094 28.902344 26.15625 Z M 28.902344 26.15625 "/>
<path style=" stroke:none;fill-rule:nonzero;fill:rgb(31.764707%,45.882353%,59.215689%);fill-opacity:1;" d="M 28.746094 26.941406 C 28.699219 26.84375 28.675781 26.683594 28.699219 26.511719 C 28.75 26.625 28.761719 26.753906 28.746094 26.941406 Z M 28.746094 26.941406 "/>
<path style=" stroke:none;fill-rule:nonzero;fill:rgb(31.764707%,45.882353%,59.215689%);fill-opacity:1;" d="M 27.054688 24.222656 C 27.097656 24.269531 27.125 24.375 27.109375 24.492188 C 27.058594 24.425781 27.046875 24.351562 27.054688 24.222656 Z M 27.054688 24.222656 "/>
<path style=" stroke:none;fill-rule:nonzero;fill:rgb(31.764707%,46.27451%,60.000002%);fill-opacity:1;" d="M 37.109375 29.207031 C 37.167969 29.261719 37.199219 29.363281 37.199219 29.480469 C 37.140625 29.414062 37.113281 29.332031 37.109375 29.207031 Z M 37.109375 29.207031 "/>
<path style=" stroke:none;fill-rule:nonzero;fill:rgb(31.764707%,46.27451%,60.000002%);fill-opacity:1;" d="M 37.480469 33.0625 C 37.53125 33.191406 37.570312 33.386719 37.570312 33.621094 C 37.511719 33.480469 37.492188 33.304688 37.480469 33.0625 Z M 37.480469 33.0625 "/>
<path style=" stroke:none;fill-rule:nonzero;fill:rgb(31.764707%,45.882353%,59.215689%);fill-opacity:1;" d="M 27.28125 20.507812 C 27.269531 20.59375 27.21875 20.703125 27.117188 20.824219 C 27.125 20.734375 27.183594 20.632812 27.28125 20.507812 Z M 27.28125 20.507812 "/>
<path style=" stroke:none;fill-rule:nonzero;fill:rgb(38.039216%,50.980395%,62.7451%);fill-opacity:1;" d="M 29.707031 39.875 C 29.761719 39.859375 29.792969 39.898438 29.808594 39.984375 C 29.773438 39.988281 29.734375 39.953125 29.707031 39.875 Z M 29.707031 39.875 "/>
<path style=" stroke:none;fill-rule:nonzero;fill:rgb(38.039216%,50.980395%,62.7451%);fill-opacity:1;" d="M 29.824219 40.058594 C 29.863281 40.015625 29.910156 40.027344 29.976562 40.09375 C 29.945312 40.117188 29.894531 40.109375 29.824219 40.058594 Z M 29.824219 40.058594 "/>
<path style=" stroke:none;fill-rule:nonzero;fill:rgb(31.764707%,45.882353%,59.215689%);fill-opacity:1;" d="M 27.011719 26.039062 C 27.054688 26.011719 27.097656 26.039062 27.144531 26.109375 C 27.113281 26.121094 27.0625 26.101562 27.011719 26.039062 Z M 27.011719 26.039062 "/>
<path style=" stroke:none;fill-rule:nonzero;fill:rgb(38.039216%,50.980395%,62.7451%);fill-opacity:1;" d="M 30.984375 27.625 C 30.921875 27.644531 30.886719 27.613281 30.847656 27.535156 C 30.832031 27.5 30.914062 27.488281 30.957031 27.496094 C 30.996094 27.527344 30.996094 27.554688 30.984375 27.625 Z M 30.984375 27.625 "/>
<path style=" stroke:none;fill-rule:nonzero;fill:rgb(49.411765%,64.705884%,77.64706%);fill-opacity:1;" d="M 41.625 23.347656 C 41.652344 23.390625 41.625 23.429688 41.558594 23.476562 C 41.511719 23.433594 41.527344 23.386719 41.625 23.347656 Z M 41.625 23.347656 "/>
<path style=" stroke:none;fill-rule:nonzero;fill:rgb(31.764707%,45.882353%,59.215689%);fill-opacity:1;" d="M 30.171875 20.78125 C 30.125 20.789062 30.078125 20.746094 30.027344 20.652344 C 30.070312 20.648438 30.121094 20.6875 30.171875 20.78125 Z M 30.171875 20.78125 "/>
<path style=" stroke:none;fill-rule:nonzero;fill:rgb(31.764707%,45.882353%,59.215689%);fill-opacity:1;" d="M 27.328125 20.371094 C 27.367188 20.363281 27.394531 20.394531 27.417969 20.429688 C 27.417969 20.433594 27.390625 20.457031 27.347656 20.484375 C 27.316406 20.492188 27.3125 20.410156 27.328125 20.371094 Z M 27.328125 20.371094 "/>
<path style=" stroke:none;fill-rule:nonzero;fill:rgb(38.039216%,50.980395%,62.7451%);fill-opacity:1;" d="M 30.953125 31.289062 C 30.886719 31.296875 30.875 31.253906 30.925781 31.183594 C 30.953125 31.195312 30.960938 31.222656 30.953125 31.289062 Z M 30.953125 31.289062 "/>
<path style=" stroke:none;fill-rule:nonzero;fill:rgb(31.764707%,46.27451%,60.000002%);fill-opacity:1;" d="M 37.332031 31.710938 C 37.363281 31.710938 37.382812 31.753906 37.382812 31.8125 C 37.347656 31.804688 37.335938 31.777344 37.332031 31.710938 Z M 37.332031 31.710938 "/>
<path style=" stroke:none;fill-rule:nonzero;fill:rgb(59.607846%,74.901962%,87.058824%);fill-opacity:1;" d="M 20.242188 37.996094 C 20.195312 36.738281 20.21875 35.492188 20.285156 34.207031 C 20.59375 34.164062 20.859375 34.160156 21.1875 34.148438 C 21.25 35.402344 21.25 36.664062 21.25 38.003906 C 20.910156 38.003906 20.613281 38.003906 20.242188 37.996094 Z M 20.242188 37.996094 "/>
<path style=" stroke:none;fill-rule:nonzero;fill:rgb(45.882353%,62.352943%,76.47059%);fill-opacity:1;" d="M 24.660156 30.9375 C 24.613281 31.835938 24.5625 32.675781 24.511719 33.59375 C 23.96875 33.753906 23.773438 33.515625 23.816406 32.980469 C 23.851562 32.542969 23.863281 32.097656 23.804688 31.667969 C 23.777344 31.441406 23.582031 31.234375 23.398438 31.007812 C 23.332031 30.710938 23.332031 30.425781 23.335938 30.070312 C 23.777344 30.292969 24.214844 30.585938 24.660156 30.9375 Z M 24.660156 30.9375 "/>
<path style=" stroke:none;fill-rule:nonzero;fill:rgb(56.470591%,72.156864%,85.09804%);fill-opacity:1;" d="M 14.65625 33.753906 C 14.785156 33.675781 14.917969 33.671875 15.117188 33.667969 C 15.222656 34.539062 15.269531 35.410156 15.273438 36.285156 C 15.273438 36.394531 15.03125 36.507812 14.898438 36.621094 C 14.824219 36.492188 14.691406 36.363281 14.6875 36.230469 C 14.660156 35.433594 14.667969 34.632812 14.65625 33.753906 Z M 14.65625 33.753906 "/>
<path style=" stroke:none;fill-rule:nonzero;fill:rgb(31.764707%,47.058824%,61.56863%);fill-opacity:1;" d="M 43.789062 30.625 C 43.972656 30.628906 44.089844 30.636719 44.273438 30.652344 C 44.222656 31.605469 44.105469 32.550781 44 33.5 C 43.917969 34.246094 43.882812 35.011719 42.929688 35.253906 C 42.847656 34.625 42.835938 34.0625 42.832031 33.425781 C 42.835938 32.84375 42.835938 32.339844 42.832031 31.832031 C 42.835938 31.644531 42.851562 31.457031 42.835938 31.269531 C 42.78125 30.554688 43.125 30.421875 43.789062 30.625 Z M 43.789062 30.625 "/>
<path style=" stroke:none;fill-rule:nonzero;fill:rgb(31.764707%,47.058824%,61.56863%);fill-opacity:1;" d="M 45.417969 34.496094 C 45.351562 33.6875 45.3125 32.875 45.347656 32.0625 C 45.355469 31.863281 45.582031 31.671875 45.78125 31.453125 C 46.253906 31.464844 46.65625 31.492188 47.101562 31.523438 C 47.101562 32.285156 47.101562 32.992188 47.082031 33.761719 C 46.53125 34.046875 46.003906 34.265625 45.417969 34.496094 Z M 45.417969 34.496094 "/>
<path style=" stroke:none;fill-rule:nonzero;fill:rgb(56.470591%,72.156864%,85.09804%);fill-opacity:1;" d="M 39.496094 31.234375 C 40.351562 31.003906 40.628906 31.382812 40.507812 32.183594 C 40.464844 32.476562 40.503906 32.777344 40.511719 33.160156 C 40.511719 33.542969 40.484375 33.847656 40.515625 34.144531 C 40.589844 34.800781 40.316406 35.066406 39.589844 34.914062 C 39.492188 34.785156 39.472656 34.714844 39.453125 34.644531 C 39.457031 33.871094 39.457031 33.097656 39.445312 32.246094 C 39.449219 31.882812 39.46875 31.59375 39.496094 31.234375 Z M 39.496094 31.234375 "/>
<path style=" stroke:none;fill-rule:nonzero;fill:rgb(49.411765%,64.705884%,77.64706%);fill-opacity:1;" d="M 42.769531 31.832031 C 42.835938 32.339844 42.835938 32.84375 42.765625 33.425781 C 42.519531 33.5 42.339844 33.5 42.164062 33.5 C 41.964844 33.421875 41.769531 33.339844 41.539062 33.222656 C 41.5 32.671875 41.5 32.160156 41.503906 31.574219 C 41.910156 31.609375 42.308594 31.71875 42.769531 31.832031 Z M 42.769531 31.832031 "/>
<path style=" stroke:none;fill-rule:nonzero;fill:rgb(54.11765%,70.19608%,83.529413%);fill-opacity:1;" d="M 42.160156 33.578125 C 42.339844 33.5 42.519531 33.5 42.761719 33.5 C 42.835938 34.0625 42.847656 34.625 42.871094 35.261719 C 42.753906 35.503906 42.617188 35.667969 42.484375 35.832031 C 42.375 35.652344 42.179688 35.480469 42.167969 35.292969 C 42.125 34.75 42.15625 34.203125 42.160156 33.578125 Z M 42.160156 33.578125 "/>
<path style=" stroke:none;fill-rule:nonzero;fill:rgb(41.568628%,55.29412%,67.843139%);fill-opacity:1;" d="M 39.40625 34.660156 C 39.472656 34.714844 39.492188 34.785156 39.523438 34.910156 C 39.441406 34.945312 39.347656 34.925781 39.257812 34.90625 C 39.292969 34.828125 39.324219 34.753906 39.40625 34.660156 Z M 39.40625 34.660156 "/>
<path style=" stroke:none;fill-rule:nonzero;fill:rgb(31.764707%,47.058824%,61.56863%);fill-opacity:1;" d="M 44.683594 30.695312 C 44.710938 30.691406 44.757812 30.71875 44.8125 30.789062 C 44.769531 30.8125 44.726562 30.78125 44.683594 30.695312 Z M 44.683594 30.695312 "/>
<path style=" stroke:none;fill-rule:nonzero;fill:rgb(31.764707%,45.882353%,59.215689%);fill-opacity:1;" d="M 27.085938 25.660156 C 27.035156 25.59375 27.027344 25.519531 27.03125 25.386719 C 27.070312 25.4375 27.101562 25.542969 27.085938 25.660156 Z M 27.085938 25.660156 "/>
<path style=" stroke:none;fill-rule:nonzero;fill:rgb(45.882353%,62.352943%,76.47059%);fill-opacity:1;" d="M 23.464844 29.183594 C 23.484375 29.21875 23.453125 29.261719 23.371094 29.316406 C 23.351562 29.277344 23.378906 29.234375 23.464844 29.183594 Z M 23.464844 29.183594 "/>
</g>
</svg>
