<svg version="1.1" id="Layer_1" xmlns="http://www.w3.org/2000/svg" xmlns:xlink="http://www.w3.org/1999/xlink" x="0px" y="0px"
	 width="100%" viewBox="0 0 384 384" enable-background="new 0 0 384 384" xml:space="preserve">
<path fill="#FFFFFF" opacity="1.000000" stroke="none" 
	d="
M217.000000,385.000000 
	C144.666687,385.000000 72.833359,385.000000 1.000029,385.000000 
	C1.000019,257.000031 1.000019,129.000076 1.000010,1.000080 
	C128.999939,1.000054 256.999878,1.000054 384.999878,1.000027 
	C384.999908,128.999924 384.999908,256.999847 384.999939,384.999878 
	C329.166656,385.000000 273.333344,385.000000 217.000000,385.000000 
M287.487396,319.851074 
	C287.756622,319.680237 287.943420,319.444183 288.733063,319.003601 
	C295.155396,313.001587 301.577698,306.999573 308.606110,300.704407 
	C313.082916,294.828857 317.559692,288.953308 322.626617,282.734924 
	C330.683777,271.096893 336.994385,258.608154 341.556946,244.518890 
	C343.686432,235.012558 345.815918,225.506241 348.087341,215.202530 
	C348.400269,204.918030 349.762268,194.530441 348.764343,184.374756 
	C347.476105,171.265213 345.690247,157.892273 341.663361,145.425873 
	C331.723389,114.653786 313.710846,89.138306 287.859100,69.296837 
	C272.911926,57.824745 256.576508,48.922050 238.636642,43.569965 
	C220.027420,38.018204 200.989578,34.930363 181.275620,36.815121 
	C167.838150,38.099815 154.574524,39.896843 141.839355,44.260395 
	C111.182037,54.764744 85.787193,72.653656 65.877945,98.467110 
	C44.963615,125.583717 34.547428,156.326477 33.103153,190.218430 
	C32.451160,205.518356 34.814587,220.558777 38.560669,235.475128 
	C44.740307,260.081573 56.949551,281.319336 73.639923,300.039337 
	C89.420326,317.738708 108.107918,331.649414 130.241791,340.602844 
	C143.351730,345.905914 156.679993,350.396423 171.586411,351.602600 
	C182.724045,351.732300 193.861679,351.862000 205.872284,352.003967 
	C214.584427,350.343231 223.296570,348.682495 232.671982,347.009338 
	C233.111526,346.962250 233.551071,346.915192 234.577942,346.903778 
	C235.057968,346.618378 235.537994,346.332947 236.792206,346.024384 
	C245.546082,342.377014 254.299973,338.729645 263.759552,334.970154 
	C267.508484,332.651886 271.257416,330.333588 275.693726,327.926910 
	C277.481384,326.625671 279.269073,325.324463 281.608185,323.764435 
	C282.406311,323.140198 283.204437,322.515961 284.645966,321.903931 
	C285.451385,321.278290 286.256805,320.652618 287.487396,319.851074 
z"/>
<path fill="#C6E8FB" opacity="1.000000" stroke="none" 
	d="
M170.986389,351.052704 
	C156.679993,350.396423 143.351730,345.905914 130.241791,340.602844 
	C108.107918,331.649414 89.420326,317.738708 73.639923,300.039337 
	C56.949551,281.319336 44.740307,260.081573 38.560669,235.475128 
	C34.814587,220.558777 32.451160,205.518356 33.103153,190.218430 
	C34.547428,156.326477 44.963615,125.583717 65.877945,98.467110 
	C85.787193,72.653656 111.182037,54.764744 141.839355,44.260395 
	C154.574524,39.896843 167.838150,38.099815 181.275620,36.815121 
	C200.989578,34.930363 220.027420,38.018204 238.636642,43.569965 
	C256.576508,48.922050 272.911926,57.824745 287.859100,69.296837 
	C313.710846,89.138306 331.723389,114.653786 341.663361,145.425873 
	C345.690247,157.892273 347.476105,171.265213 348.764343,184.374756 
	C349.762268,194.530441 348.400269,204.918030 347.665222,215.539062 
	C346.512177,214.829407 345.282806,213.847580 345.137939,212.725708 
	C344.558777,208.240875 343.764954,203.674210 344.075104,199.208969 
	C344.579315,191.950333 342.382935,185.267441 341.166687,178.320389 
	C339.275757,167.519592 333.355927,159.442245 325.854980,151.698578 
	C322.254791,147.248047 318.977997,142.932724 315.296600,138.995712 
	C311.688599,135.137131 307.668823,131.663605 303.583496,127.813629 
	C299.029144,121.718414 295.163361,115.437126 290.335785,110.011620 
	C270.342529,87.542061 246.105438,72.290794 216.155334,66.459702 
	C191.910080,61.739311 168.161697,63.209778 145.146255,71.656418 
	C122.464859,79.980469 103.339539,93.673042 87.829971,112.501556 
	C64.631119,140.664795 57.053341,173.287720 59.071533,208.863770 
	C59.113789,209.608643 59.709309,210.322128 60.001404,211.482590 
	C62.355946,235.612350 70.846451,256.899872 85.056610,275.995117 
	C97.301491,292.449493 113.562752,304.024078 130.992691,314.617279 
	C132.701630,316.619507 134.351654,318.307617 136.143921,320.294189 
	C138.524521,322.728119 140.762878,324.863525 143.144165,327.298248 
	C145.858078,330.065033 148.429047,332.532501 151.144379,335.299866 
	C151.960693,336.334778 152.598618,337.104706 153.310242,337.799072 
	C157.369324,341.759521 160.640656,346.735229 167.273712,347.132355 
	C168.584824,347.210846 169.752548,349.683929 170.986389,351.052704 
z"/>
<path fill="#BEE0F3" opacity="1.000000" stroke="none" 
	d="
M303.829742,128.021088 
	C307.668823,131.663605 311.688599,135.137131 315.296600,138.995712 
	C318.977997,142.932724 322.254791,147.248047 325.897339,152.079742 
	C328.376251,159.762604 331.178009,166.645309 332.829559,173.793762 
	C334.972473,183.069351 336.687653,192.505066 337.685150,201.966919 
	C338.700897,211.601578 338.475800,221.360870 339.086182,231.047180 
	C339.380646,235.719955 340.345764,240.350479 341.007233,245.000137 
	C336.994385,258.608154 330.683777,271.096893 322.324158,282.507629 
	C324.200195,273.135010 326.535461,264.023285 328.504547,254.833145 
	C329.922363,248.215942 331.675476,241.515182 331.846680,234.815079 
	C332.381287,213.897049 329.867584,193.272186 323.461121,173.270706 
	C322.913208,171.560074 320.595978,170.416122 319.056732,168.606415 
	C318.562653,166.279083 318.342804,164.263397 317.625000,162.444183 
	C313.088013,150.945587 308.440643,139.490524 303.829742,128.021088 
z"/>
<path fill="#B9DCF0" opacity="1.000000" stroke="none" 
	d="
M319.100708,169.008926 
	C320.595978,170.416122 322.913208,171.560074 323.461121,173.270706 
	C329.867584,193.272186 332.381287,213.897049 331.846680,234.815079 
	C331.675476,241.515182 329.922363,248.215942 328.504547,254.833145 
	C326.535461,264.023285 324.200195,273.135010 322.029053,282.679016 
	C317.559692,288.953308 313.082916,294.828857 308.308868,300.462250 
	C308.841187,297.540802 309.046570,294.407990 310.607330,292.260040 
	C317.726349,282.462799 318.948090,270.436371 322.588318,259.489868 
	C326.045807,249.092865 326.389374,237.450607 326.787018,226.308990 
	C327.134674,216.568344 325.781830,206.749985 324.838440,196.999023 
	C324.700195,195.569870 322.665863,194.324188 321.412598,192.564026 
	C321.244171,190.079330 321.171967,188.024261 321.453857,185.903748 
	C322.103424,184.719482 322.877655,183.466675 322.608826,182.505722 
	C321.619415,178.969330 320.284180,175.529694 319.076111,171.672836 
	C319.082367,170.530975 319.091522,169.769958 319.100708,169.008926 
z"/>
<path fill="#C3E5F8" opacity="1.000000" stroke="none" 
	d="
M341.282104,244.759521 
	C340.345764,240.350479 339.380646,235.719955 339.086182,231.047180 
	C338.475800,221.360870 338.700897,211.601578 337.685150,201.966919 
	C336.687653,192.505066 334.972473,183.069351 332.829559,173.793762 
	C331.178009,166.645309 328.376251,159.762604 326.043579,152.380554 
	C333.355927,159.442245 339.275757,167.519592 341.166687,178.320389 
	C342.382935,185.267441 344.579315,191.950333 344.075104,199.208969 
	C343.764954,203.674210 344.558777,208.240875 345.137939,212.725708 
	C345.282806,213.847580 346.512177,214.829407 347.594269,215.937744 
	C345.815918,225.506241 343.686432,235.012558 341.282104,244.759521 
z"/>
<path fill="#B5D9ED" opacity="1.000000" stroke="none" 
	d="
M143.001221,326.998962 
	C140.762878,324.863525 138.524521,322.728119 136.352814,320.033508 
	C137.610275,318.990265 138.801102,318.506165 140.312332,318.038879 
	C141.813141,318.537994 142.993561,319.020294 144.146423,319.904846 
	C146.705093,324.484833 148.458481,324.892273 151.307037,321.911499 
	C152.111572,322.137482 152.628555,322.362671 153.136978,322.981293 
	C154.543900,324.327576 155.835358,325.742737 157.394272,326.160980 
	C171.235947,329.874268 185.124954,333.411102 199.247086,337.285156 
	C206.905014,338.713531 214.286026,340.210419 221.740265,340.839447 
	C225.084625,341.121643 228.575577,339.666779 232.416656,339.000061 
	C234.222214,338.999969 235.611115,339.000000 237.410248,339.000000 
	C239.547058,338.333679 241.273621,337.667389 243.397781,337.000153 
	C246.530258,336.332794 249.265121,335.666382 252.226410,335.256226 
	C255.986511,335.369080 259.520172,335.225677 263.053864,335.082275 
	C254.299973,338.729645 245.546082,342.377014 236.244080,345.801392 
	C235.127487,346.008270 234.559036,346.438171 233.990601,346.868103 
	C233.551071,346.915192 233.111526,346.962250 232.089630,346.722809 
	C228.929535,345.957520 226.369675,345.281982 223.769897,345.045837 
	C219.818298,344.686951 215.715057,345.189819 211.895782,344.339966 
	C202.241821,342.191681 192.712494,339.484680 183.128906,337.018402 
	C175.608246,335.082977 168.087967,333.145386 160.554642,331.260223 
	C154.713806,329.798584 148.853104,328.416443 143.001221,326.998962 
z"/>
<path fill="#B5D9ED" opacity="1.000000" stroke="none" 
	d="
M321.508789,192.993622 
	C322.665863,194.324188 324.700195,195.569870 324.838440,196.999023 
	C325.781830,206.749985 327.134674,216.568344 326.787018,226.308990 
	C326.389374,237.450607 326.045807,249.092865 322.588318,259.489868 
	C318.948090,270.436371 317.726349,282.462799 310.607330,292.260040 
	C309.046570,294.407990 308.841187,297.540802 308.005798,300.608826 
	C301.577698,306.999573 295.155396,313.001587 288.403748,318.703125 
	C291.654846,313.496307 295.350708,308.669250 298.787872,303.664581 
	C303.599365,296.658844 308.955444,289.884369 310.024231,280.680786 
	C310.365631,279.574371 310.682831,278.787170 311.362701,277.939056 
	C312.494385,276.511444 313.518982,275.225403 313.980438,273.761780 
	C315.017212,270.473358 315.796692,267.102417 316.641052,263.755035 
	C318.441559,256.617004 320.676422,249.548645 321.874634,242.309616 
	C323.106415,234.867493 323.709473,227.260910 323.800568,219.716797 
	C323.843567,216.156799 322.046906,212.574554 321.035248,208.537506 
	C321.160736,203.046280 321.334778,198.019958 321.508789,192.993622 
z"/>
<path fill="#BCDEF2" opacity="1.000000" stroke="none" 
	d="
M143.144165,327.298248 
	C148.853104,328.416443 154.713806,329.798584 160.554642,331.260223 
	C168.087967,333.145386 175.608246,335.082977 183.128906,337.018402 
	C192.712494,339.484680 202.241821,342.191681 211.895782,344.339966 
	C215.715057,345.189819 219.818298,344.686951 223.769897,345.045837 
	C226.369675,345.281982 228.929535,345.957520 231.757996,346.729004 
	C223.296570,348.682495 214.584427,350.343231 205.371933,351.638153 
	C201.570114,350.002289 198.339554,348.488464 194.954941,347.504395 
	C180.327866,343.251709 165.655731,339.154053 151.000000,335.000000 
	C148.429047,332.532501 145.858078,330.065033 143.144165,327.298248 
z"/>
<path fill="#C3E5F8" opacity="1.000000" stroke="none" 
	d="
M151.144379,335.299866 
	C165.655731,339.154053 180.327866,343.251709 194.954941,347.504395 
	C198.339554,348.488464 201.570114,350.002289 204.935455,351.632019 
	C193.861679,351.862000 182.724045,351.732300 171.286407,351.327637 
	C169.752548,349.683929 168.584824,347.210846 167.273712,347.132355 
	C160.640656,346.735229 157.369324,341.759521 153.310242,337.799072 
	C152.598618,337.104706 151.960693,336.334778 151.144379,335.299866 
z"/>
<path fill="#B4D7EC" opacity="1.000000" stroke="none" 
	d="
M310.000000,281.000000 
	C308.955444,289.884369 303.599365,296.658844 298.787872,303.664581 
	C295.350708,308.669250 291.654846,313.496307 288.061096,318.772766 
	C287.943420,319.444183 287.756622,319.680237 286.920227,319.933563 
	C285.569550,320.641266 284.786072,321.266479 284.002563,321.891724 
	C283.204437,322.515961 282.406311,323.140198 280.956207,323.890259 
	C278.538269,325.349182 276.772308,326.682220 275.006348,328.015289 
	C271.257416,330.333588 267.508484,332.651886 263.406708,335.026215 
	C259.520172,335.225677 255.986511,335.369080 252.448273,334.966827 
	C254.941635,333.325043 257.554688,332.431641 259.914215,331.091736 
	C265.290192,328.038971 270.851685,325.178009 275.760986,321.474518 
	C281.204926,317.367645 286.443054,312.797241 290.962006,307.710205 
	C295.203339,302.935699 298.352661,297.197876 302.051453,291.932373 
	C304.640930,288.246033 307.346375,284.641235 310.000000,281.000000 
z"/>
<path fill="#B5D9ED" opacity="1.000000" stroke="none" 
	d="
M275.350037,327.971100 
	C276.772308,326.682220 278.538269,325.349182 280.680481,324.019684 
	C279.269073,325.324463 277.481384,326.625671 275.350037,327.971100 
z"/>
<path fill="#B5D9ED" opacity="1.000000" stroke="none" 
	d="
M284.324280,321.897827 
	C284.786072,321.266479 285.569550,320.641266 286.707642,320.021484 
	C286.256805,320.652618 285.451385,321.278290 284.324280,321.897827 
z"/>
<path fill="#BCDEF2" opacity="1.000000" stroke="none" 
	d="
M234.284271,346.885925 
	C234.559036,346.438171 235.127487,346.008270 235.856964,345.812927 
	C235.537994,346.332947 235.057968,346.618378 234.284271,346.885925 
z"/>
<path fill="#FDFDFE" opacity="1.000000" stroke="none" 
	d="
M319.056732,168.606415 
	C319.091522,169.769958 319.082367,170.530975 318.614075,171.674057 
	C316.504303,172.056686 314.840424,172.191772 313.205658,172.030762 
	C309.435913,171.659454 307.531097,173.031937 307.990204,177.041061 
	C308.077545,177.803818 307.782196,178.610397 307.582672,179.931152 
	C304.859344,179.931152 302.240753,179.701447 299.695404,180.033417 
	C298.519653,180.186752 297.487030,181.437027 296.307007,182.634979 
	C296.132263,188.704300 296.040039,194.328583 295.528778,199.951874 
	C291.259125,200.235199 291.968842,197.430099 291.967773,195.212997 
	C291.956818,173.116684 291.978302,151.020355 291.974396,128.924042 
	C291.974152,127.535789 291.838501,126.147552 291.766998,124.781006 
	C281.756470,128.992142 284.277161,137.862076 283.781036,145.937912 
	C281.533691,145.755463 279.776459,145.443451 278.040619,145.535431 
	C277.000488,145.590546 275.993835,146.277222 274.678406,146.900299 
	C272.453461,152.172745 270.522247,157.224930 268.383575,162.819870 
	C267.250763,162.407410 265.162506,161.647064 263.016357,160.428085 
	C262.958466,153.425201 262.958466,146.880951 262.958466,140.056946 
	C258.155396,140.056946 254.074539,140.056946 249.749222,140.088501 
	C249.174515,140.318924 249.061172,140.604019 249.097260,141.441162 
	C248.900070,155.222214 248.770325,168.537415 248.241089,181.867249 
	C244.072296,182.425613 242.921997,180.675568 242.960922,177.044968 
	C243.105148,163.593689 243.022888,150.139954 243.024582,136.687149 
	C243.025665,128.092484 243.024765,119.497818 243.024765,110.294632 
	C239.636108,112.086418 236.801697,113.585144 233.971161,114.615730 
	C233.975021,110.617828 233.975021,107.088074 233.975021,103.558311 
	C233.351379,103.598930 232.727737,103.639549 232.104095,103.680168 
	C232.104095,107.794868 232.104095,111.909576 232.024628,116.362587 
	C231.246338,117.371971 230.661911,118.298050 229.829559,118.671371 
	C225.507980,120.609581 224.627777,124.014587 224.896515,128.396317 
	C225.210114,133.508987 224.778702,138.665268 225.036118,143.784241 
	C225.199875,147.041260 223.923416,148.344635 220.409027,148.242767 
	C218.527802,148.493042 217.090378,148.798706 215.395325,148.992508 
	C214.770004,148.814377 214.402298,148.748093 214.039185,148.145248 
	C213.668747,135.818893 215.929398,123.710571 209.872437,112.612823 
	C209.397476,111.742584 208.481857,111.112854 207.771057,110.371353 
	C207.223267,111.106865 206.530090,111.775452 206.154938,112.590439 
	C205.031326,115.031471 204.032059,117.529739 202.518173,119.991211 
	C198.391830,119.982704 194.717682,119.813972 191.079895,120.102913 
	C190.013199,120.187637 188.183716,121.556862 188.169632,122.362976 
	C187.975983,133.442703 188.038971,144.526917 188.038971,155.520264 
	C190.459320,156.124420 192.222580,156.564560 194.071472,157.322403 
	C194.264343,158.064713 194.371597,158.489334 194.355408,159.373352 
	C194.539536,169.222092 194.847092,178.611389 195.097992,188.466156 
	C195.347076,204.881683 195.667969,220.831497 195.942062,236.782104 
	C195.982925,239.159836 196.261307,241.517685 199.329712,240.788727 
	C200.498840,240.510986 202.084061,238.544785 202.091858,237.339111 
	C202.193924,221.556854 202.047058,205.773010 202.054535,189.529968 
	C202.070267,183.388397 201.994171,177.706406 202.000702,171.598587 
	C202.030228,169.441544 201.977127,167.710342 202.013611,165.541962 
	C202.106018,163.607437 201.906998,162.073410 202.170456,160.623413 
	C202.416031,159.271866 202.904541,157.086899 203.717468,156.867569 
	C207.282578,155.905655 207.232574,158.655869 207.310547,161.067490 
	C208.020218,183.017014 208.732712,204.966446 209.451843,226.915665 
	C209.577148,230.740067 209.553818,234.585434 210.009735,238.371658 
	C210.124680,239.326157 211.829865,240.762329 212.794113,240.754333 
	C213.782394,240.746140 215.148071,239.414124 215.631699,238.339050 
	C216.132431,237.225876 215.782440,235.725494 215.787354,234.394440 
	C215.877594,209.931793 215.921539,185.468735 216.160873,161.007568 
	C216.175415,159.520370 217.736557,158.048294 218.578079,156.569183 
	C219.421036,157.934158 220.724640,159.207916 221.016617,160.682022 
	C221.756180,164.416016 222.041733,168.239944 222.434784,172.402832 
	C222.503647,173.515411 222.646881,174.253006 222.663788,175.235123 
	C222.687576,175.987839 222.837677,176.496017 222.929230,177.449524 
	C223.264374,181.931961 223.658081,185.969070 224.000137,190.256348 
	C224.011414,190.664764 224.074341,190.822998 224.089508,191.381210 
	C224.342590,193.850296 224.643463,195.919418 224.884628,198.385101 
	C224.951172,199.837646 225.077438,200.893631 225.146637,202.372757 
	C226.403793,222.007324 227.943207,241.207153 228.933914,260.435272 
	C229.404892,269.576324 226.047729,277.473083 219.469360,284.222260 
	C214.438934,289.383270 209.605743,294.975525 205.870514,301.099213 
	C201.246384,308.680176 203.428131,317.631439 202.692596,326.088898 
	C202.217377,326.348785 202.043854,326.595825 201.516891,326.921204 
	C195.395218,327.266052 189.710159,327.591034 183.823135,327.667816 
	C181.441162,327.277283 179.261154,327.134949 177.151566,326.528625 
	C179.209442,308.957520 174.564224,294.640808 160.532043,283.650787 
	C154.196365,278.688690 151.908325,271.098938 151.373215,263.250793 
	C151.046143,258.454010 151.304047,253.593689 151.610443,248.781723 
	C152.625290,232.843170 153.781372,216.913620 155.001129,200.578522 
	C155.487274,195.462097 155.855560,190.747772 156.428452,185.686249 
	C156.916046,181.912292 157.199051,178.485550 157.638947,174.683853 
	C158.183517,169.526138 158.383942,164.716049 159.075180,159.977585 
	C159.277481,158.590668 160.875610,157.407364 161.917618,156.138184 
	C162.001251,156.145599 162.053802,155.986069 162.066544,156.241028 
	C162.378998,156.612473 162.678726,156.728973 163.305664,157.134003 
	C163.772202,161.884323 164.003601,166.345459 164.035355,170.808014 
	C164.197006,193.531784 164.306992,216.255905 164.448105,239.343872 
	C168.987183,241.979355 170.508774,241.306778 170.671722,236.758545 
	C170.776123,233.844177 170.565582,230.918518 170.605453,227.542145 
	C171.160782,207.731476 171.606857,188.376602 172.216644,168.697052 
	C172.336441,166.916931 172.292511,165.461487 172.385681,163.684235 
	C172.455795,162.909103 172.388809,162.455750 172.470551,161.643784 
	C172.562286,160.522202 172.505310,159.759232 172.588287,158.684296 
	C172.823959,157.927383 172.919662,157.482452 173.406204,156.931503 
	C174.865326,156.732254 175.933609,156.639023 177.276794,156.903473 
	C177.733459,159.395828 178.065720,161.529892 178.074036,163.665222 
	C178.171844,188.781189 178.221115,213.897354 178.232651,239.258972 
	C178.412262,239.717621 178.642410,239.930725 178.931915,240.077042 
	C178.991272,240.010239 178.855484,240.126434 178.950180,240.360840 
	C179.358627,240.649231 179.672363,240.703232 180.396454,240.836517 
	C183.525711,241.254959 184.184647,239.810715 184.245346,237.370972 
	C184.654984,220.904358 185.159958,204.440094 185.724274,187.739502 
	C185.769058,187.341995 185.723618,187.180069 185.761353,186.557831 
	C185.900253,181.399963 185.956024,176.702408 186.188293,171.734589 
	C186.182602,169.640381 186.000427,167.816406 185.904068,165.750092 
	C185.985291,165.336411 185.980713,165.165085 186.001007,164.562027 
	C186.025879,162.373764 186.025879,160.617233 186.025879,158.622528 
	C184.220337,158.321106 182.818680,158.087112 181.350784,157.399323 
	C181.192322,146.297745 181.100098,135.649963 181.023346,124.693451 
	C180.730469,124.136314 180.422089,123.887917 179.989426,123.430725 
	C179.865143,123.221924 179.434937,122.995895 179.478622,122.602043 
	C179.202774,120.348763 178.883255,118.489326 178.529419,116.577469 
	C178.495087,116.525047 178.462875,116.403931 178.373489,116.064590 
	C176.928879,110.136070 175.608841,104.537811 174.174103,98.969109 
	C173.993835,98.269417 173.209229,97.725418 172.757217,96.636101 
	C172.809799,90.948151 172.809799,85.733376 172.809799,80.518608 
	C172.197906,80.550583 171.586014,80.582565 170.974121,80.614548 
	C170.974121,86.061897 170.974121,91.509254 170.676758,97.210968 
	C168.269363,104.311012 166.159348,111.156677 163.963806,118.397461 
	C163.936890,119.863953 163.995499,120.935310 163.968323,122.235550 
	C163.882538,122.464424 163.894669,122.953117 163.937439,122.965103 
	C163.980209,122.977081 163.930557,122.903419 163.681488,123.039604 
	C163.096130,123.786057 162.759842,124.396324 162.325928,125.464478 
	C162.290756,132.279602 162.353226,138.636841 162.321045,145.324829 
	C162.289215,146.105392 162.352020,146.555252 162.306244,147.313812 
	C162.099121,148.047531 162.000610,148.472519 161.577484,148.879395 
	C160.251053,148.464401 159.249268,148.067520 158.108505,147.340759 
	C156.107224,142.762650 154.244888,138.514420 152.382553,134.266190 
	C151.999176,134.343918 151.615799,134.421646 151.232422,134.499374 
	C150.056595,138.887390 148.880768,143.275391 147.313019,147.738159 
	C146.284439,148.897736 145.438965,149.915176 145.061722,151.083755 
	C144.542328,152.692795 144.376846,154.416092 143.672363,155.974518 
	C142.860352,154.203125 142.417801,152.551971 142.017426,150.890656 
	C141.753494,149.795532 141.751022,147.823364 141.288864,147.715805 
	C136.601227,146.624619 138.343140,142.955582 137.976166,140.117340 
	C137.812698,138.853149 137.639084,136.618774 137.140411,136.521896 
	C132.849182,135.688400 133.798935,132.412262 134.038940,129.851028 
	C134.422699,125.755920 132.769577,124.593681 128.917450,124.872841 
	C124.943619,125.160805 120.911049,125.198990 116.944252,124.867218 
	C112.888168,124.527985 111.604179,126.079811 111.931839,129.969360 
	C112.087425,131.816299 111.869881,135.071396 110.980492,135.397873 
	C106.463989,137.055817 107.031013,140.655701 106.988907,144.015869 
	C106.901352,151.004791 106.988914,157.995926 106.959061,165.454147 
	C106.803688,172.073761 106.693764,178.225357 106.249680,184.461853 
	C104.577583,184.409988 103.239655,184.273239 101.919464,183.658203 
	C101.947372,179.373779 102.042618,175.565613 101.951721,171.761887 
	C101.681992,160.474472 104.284599,162.224396 91.940559,161.948242 
	C88.938736,161.881088 87.840439,162.879150 87.911987,165.930542 
	C88.074875,172.876984 87.778374,179.835846 88.008072,186.778442 
	C88.145821,190.942047 86.724457,192.724625 82.403061,191.392456 
	C82.288353,181.372131 82.288353,171.795410 82.288353,162.095139 
	C77.826889,162.095139 74.093391,162.095139 69.861603,162.095139 
	C69.861603,178.423431 69.861603,194.464188 69.861603,211.050247 
	C66.265129,211.050247 63.155926,211.050247 60.046722,211.050247 
	C59.709309,210.322128 59.113789,209.608643 59.071533,208.863770 
	C57.053341,173.287720 64.631119,140.664795 87.829971,112.501556 
	C103.339539,93.673042 122.464859,79.980469 145.146255,71.656418 
	C168.161697,63.209778 191.910080,61.739311 216.155334,66.459702 
	C246.105438,72.290794 270.342529,87.542061 290.335785,110.011620 
	C295.163361,115.437126 299.029144,121.718414 303.583496,127.813629 
	C308.440643,139.490524 313.088013,150.945587 317.625000,162.444183 
	C318.342804,164.263397 318.562653,166.279083 319.056732,168.606415 
z"/>
<path fill="#4B7194" opacity="1.000000" stroke="none" 
	d="
M154.883255,200.980606 
	C153.781372,216.913620 152.625290,232.843170 151.610443,248.781723 
	C151.304047,253.593689 151.046143,258.454010 151.373215,263.250793 
	C151.908325,271.098938 154.196365,278.688690 160.532043,283.650787 
	C174.564224,294.640808 179.209442,308.957520 176.749146,326.436981 
	C168.566071,325.402161 160.855804,323.994995 153.145538,322.587830 
	C152.628555,322.362671 152.111572,322.137482 151.053223,321.662292 
	C148.399231,320.775726 146.286606,320.139160 144.173965,319.502594 
	C142.993561,319.020294 141.813141,318.537994 140.088135,317.779053 
	C136.673630,316.436005 133.803696,315.369598 130.933777,314.303162 
	C113.562752,304.024078 97.301491,292.449493 85.056610,275.995117 
	C70.846451,256.899872 62.355946,235.612350 60.001404,211.482590 
	C63.155926,211.050247 66.265129,211.050247 69.861603,211.050247 
	C69.861603,194.464188 69.861603,178.423431 69.861603,162.095139 
	C74.093391,162.095139 77.826889,162.095139 82.288353,162.095139 
	C82.288353,171.795410 82.288353,181.372131 82.297455,191.847107 
	C82.306549,195.722855 82.306549,198.700302 82.306549,201.784775 
	C84.694046,201.905655 86.297401,201.986816 87.937988,202.529312 
	C88.002747,207.790924 87.970695,212.593018 88.116875,217.389694 
	C88.141022,218.182068 88.945534,218.950668 89.389404,219.730255 
	C90.175789,219.054672 91.642570,218.377045 91.640556,217.703796 
	C91.624901,212.469421 91.326225,207.235901 91.138832,201.535950 
	C91.165421,199.253860 91.169601,197.437927 91.170853,195.621979 
	C91.178566,184.487686 91.178345,184.487686 101.901718,184.136475 
	C103.239655,184.273239 104.577583,184.409988 106.674561,184.663757 
	C107.980270,186.363403 108.955246,187.934341 108.998833,189.530716 
	C109.179901,196.160568 109.080482,202.798126 109.082924,209.432846 
	C109.084175,212.825409 109.083145,216.217957 109.083145,219.557449 
	C112.223267,219.879181 114.459435,220.108307 116.034798,220.269714 
	C118.377563,223.007324 114.220116,228.833817 121.459412,227.970337 
	C123.682526,228.024445 125.464081,228.024445 127.511284,228.024445 
	C127.511284,219.978882 127.511284,212.416229 127.609032,204.406372 
	C127.835068,198.015305 127.963356,192.071426 128.544449,186.126007 
	C132.661453,186.077499 136.325653,186.030533 140.381393,186.051331 
	C141.493774,187.411789 142.663818,188.646729 142.838989,190.009567 
	C143.171478,192.596130 143.099396,195.269119 142.891357,197.882004 
	C142.635605,201.094406 143.819214,202.529968 147.438248,202.015045 
	C150.009552,200.632401 152.058838,198.112747 154.883255,200.980606 
z"/>
<path fill="#ADD1E8" opacity="1.000000" stroke="none" 
	d="
M130.992691,314.617279 
	C133.803696,315.369598 136.673630,316.436005 139.767731,317.762268 
	C138.801102,318.506165 137.610275,318.990265 136.210556,319.735046 
	C134.351654,318.307617 132.701630,316.619507 130.992691,314.617279 
z"/>
<path fill="#4B7094" opacity="1.000000" stroke="none" 
	d="
M222.790115,174.990585 
	C222.646881,174.253006 222.503647,173.515411 222.772552,172.407516 
	C225.012558,174.182358 227.568420,176.050354 228.513077,178.531738 
	C230.343094,183.338745 231.266281,188.490982 232.590714,193.598312 
	C234.012543,193.389801 235.290558,193.202377 236.670380,193.471634 
	C236.753540,198.576523 236.734879,203.224747 236.439636,207.961975 
	C235.954681,208.512848 235.746338,208.974716 235.537964,209.436584 
	C236.095001,209.550278 236.652039,209.663971 237.617554,209.807434 
	C241.892136,210.406326 243.534302,208.801270 243.101746,204.874634 
	C242.905121,203.089844 243.081757,201.263931 243.508484,199.402802 
	C245.624847,199.267761 247.321777,199.186584 249.229675,199.337219 
	C250.618576,200.047699 251.796524,200.526367 252.956955,201.470032 
	C252.927795,205.213562 252.747726,208.504974 252.997070,211.763535 
	C253.082870,212.885101 254.240021,213.924683 254.907745,215.001709 
	C255.713409,214.010269 256.519073,213.018814 257.664398,211.966476 
	C263.286713,210.073532 263.516144,205.481567 264.008942,200.996307 
	C264.633728,195.309875 265.328735,189.631149 266.327087,183.922913 
	C267.105957,183.918976 267.551147,183.941208 268.090912,184.182358 
	C268.363647,184.678177 268.606934,184.874405 268.950745,185.458008 
	C269.169922,194.230972 268.638153,202.583847 269.218994,210.862091 
	C269.935699,210.883224 270.652374,210.904373 271.369080,210.925507 
	C271.634979,209.622482 271.900909,208.319458 272.510010,206.967834 
	C276.020203,205.596680 279.187195,204.274139 282.397278,203.372772 
	C281.634827,208.528229 283.455261,210.675110 288.358643,209.843842 
	C289.172852,209.705795 290.014130,209.727310 291.300568,209.769653 
	C293.923309,209.884216 296.170532,210.257980 298.220306,209.781769 
	C299.319824,209.526337 300.079834,207.809479 301.442169,206.782013 
	C303.817505,206.899231 305.743683,206.986557 307.555420,207.068695 
	C308.021027,210.108093 308.405151,212.615540 308.789276,215.122971 
	C309.436371,215.087067 310.083435,215.051163 310.730530,215.015259 
	C310.730530,205.450729 310.730530,195.886200 310.730530,185.969177 
	C314.844055,185.969177 317.971893,185.969177 321.099731,185.969177 
	C321.171967,188.024261 321.244171,190.079330 321.412598,192.564026 
	C321.334778,198.019958 321.160736,203.046280 320.913452,208.930603 
	C320.196411,214.507935 319.552612,219.227310 318.688293,224.248627 
	C316.973053,230.365799 315.478394,236.181046 313.730835,242.238831 
	C308.613861,252.304550 303.749786,262.127716 298.607819,272.128510 
	C283.776733,292.498260 265.218079,307.711975 242.048538,316.979614 
	C229.506729,321.996277 216.598175,325.786285 202.911072,326.017639 
	C203.428131,317.631439 201.246384,308.680176 205.870514,301.099213 
	C209.605743,294.975525 214.438934,289.383270 219.469360,284.222260 
	C226.047729,277.473083 229.404892,269.576324 228.933914,260.435272 
	C227.943207,241.207153 226.403793,222.007324 225.373611,202.137970 
	C225.419861,200.316223 225.182098,199.152374 224.944336,197.988541 
	C224.643463,195.919418 224.342590,193.850296 224.237640,191.283081 
	C224.306290,190.525391 224.179031,190.265778 224.051788,190.006180 
	C223.658081,185.969070 223.264374,181.931961 223.139648,177.327942 
	C223.202454,176.170898 222.996292,175.580734 222.790115,174.990585 
z"/>
<path fill="#B5D9F2" opacity="1.000000" stroke="none" 
	d="
M321.453827,185.903748 
	C317.971893,185.969177 314.844055,185.969177 310.730530,185.969177 
	C310.730530,195.886200 310.730530,205.450729 310.730530,215.015259 
	C310.083435,215.051163 309.436371,215.087067 308.789276,215.122971 
	C308.405151,212.615540 308.021027,210.108093 307.555420,207.068695 
	C305.743683,206.986557 303.817505,206.899231 301.456390,206.335907 
	C301.013428,199.294083 300.834625,192.722275 301.063965,186.164749 
	C301.193268,182.467514 299.730469,181.420380 296.389496,182.189957 
	C297.487030,181.437027 298.519653,180.186752 299.695404,180.033417 
	C302.240753,179.701447 304.859344,179.931152 307.582672,179.931152 
	C307.782196,178.610397 308.077545,177.803818 307.990204,177.041061 
	C307.531097,173.031937 309.435913,171.659454 313.205658,172.030762 
	C314.840424,172.191772 316.504303,172.056686 318.617004,172.054886 
	C320.284180,175.529694 321.619415,178.969330 322.608826,182.505722 
	C322.877655,183.466675 322.103424,184.719482 321.453827,185.903748 
z"/>
<path fill="#B0D4EA" opacity="1.000000" stroke="none" 
	d="
M313.983734,241.996277 
	C315.478394,236.181046 316.973053,230.365799 319.001404,224.537292 
	C321.987701,237.254593 317.502014,249.264343 315.511993,261.505035 
	C314.602386,267.100006 312.539703,272.507477 311.000000,278.000000 
	C310.682831,278.787170 310.365631,279.574371 310.024231,280.680786 
	C307.346375,284.641235 304.640930,288.246033 302.051453,291.932373 
	C298.352661,297.197876 295.203339,302.935699 290.962006,307.710205 
	C286.443054,312.797241 281.204926,317.367645 275.760986,321.474518 
	C270.851685,325.178009 265.290192,328.038971 259.914215,331.091736 
	C257.554688,332.431641 254.941635,333.325043 252.221848,334.710602 
	C249.265121,335.666382 246.530258,336.332794 243.076324,336.860718 
	C239.751099,335.551910 237.896973,336.150360 237.000000,339.000000 
	C235.611115,339.000000 234.222214,338.999969 232.141876,338.711060 
	C221.189148,337.636963 210.929001,336.836090 200.663452,336.111542 
	C200.132523,336.074097 199.555542,336.688873 199.000000,337.000000 
	C185.124954,333.411102 171.235947,329.874268 157.394272,326.160980 
	C155.835358,325.742737 154.543900,324.327576 153.136978,322.981262 
	C160.855804,323.994995 168.566071,325.402161 176.678741,326.900940 
	C179.261154,327.134949 181.441162,327.277283 183.882080,328.050598 
	C185.909866,329.344635 187.646103,330.108521 189.448257,330.655182 
	C209.354172,336.693298 229.191315,336.952637 248.938736,329.895691 
	C259.855865,325.994385 270.327362,321.124603 278.562775,312.814362 
	C284.892792,306.426788 290.795502,299.528198 296.200043,292.339508 
	C300.329163,286.847290 304.217804,280.874146 306.713135,274.525269 
	C310.311981,265.368561 312.636597,255.701111 315.263031,246.184845 
	C315.590912,244.996841 314.446136,243.402405 313.983734,241.996277 
z"/>
<path fill="#B4D7EC" opacity="1.000000" stroke="none" 
	d="
M199.247086,337.285156 
	C199.555542,336.688873 200.132523,336.074097 200.663452,336.111542 
	C210.929001,336.836090 221.189148,337.636963 231.725204,338.711151 
	C228.575577,339.666779 225.084625,341.121643 221.740265,340.839447 
	C214.286026,340.210419 206.905014,338.713531 199.247086,337.285156 
z"/>
<path fill="#B0D4EA" opacity="1.000000" stroke="none" 
	d="
M144.146423,319.904846 
	C146.286606,320.139160 148.399231,320.775726 150.765686,321.661469 
	C148.458481,324.892273 146.705093,324.484833 144.146423,319.904846 
z"/>
<path fill="#B4D7EC" opacity="1.000000" stroke="none" 
	d="
M237.410248,339.000000 
	C237.896973,336.150360 239.751099,335.551910 242.678711,336.861633 
	C241.273621,337.667389 239.547058,338.333679 237.410248,339.000000 
z"/>
<path fill="#B4D7EC" opacity="1.000000" stroke="none" 
	d="
M311.362701,277.939056 
	C312.539703,272.507477 314.602386,267.100006 315.511993,261.505035 
	C317.502014,249.264343 321.987701,237.254593 319.221985,224.235352 
	C319.552612,219.227310 320.196411,214.507935 320.961975,209.395477 
	C322.046906,212.574554 323.843567,216.156799 323.800568,219.716797 
	C323.709473,227.260910 323.106415,234.867493 321.874634,242.309616 
	C320.676422,249.548645 318.441559,256.617004 316.641052,263.755035 
	C315.796692,267.102417 315.017212,270.473358 313.980438,273.761780 
	C313.518982,275.225403 312.494385,276.511444 311.362701,277.939056 
z"/>
<path fill="#4D7296" opacity="1.000000" stroke="none" 
	d="
M185.634064,187.975082 
	C185.159958,204.440094 184.654984,220.904358 184.245346,237.370972 
	C184.184647,239.810715 183.525711,241.254959 180.259583,240.652679 
	C179.466034,240.173935 179.180420,240.086227 178.855484,240.126434 
	C178.855484,240.126434 178.991272,240.010239 178.919785,239.851013 
	C178.753342,239.387863 178.564972,239.161758 178.283173,239.013458 
	C178.221115,213.897354 178.171844,188.781189 178.074036,163.665222 
	C178.065720,161.529892 177.733459,159.395828 177.174988,156.596069 
	C175.537292,156.299835 174.276337,156.668686 173.015381,157.037537 
	C172.919662,157.482452 172.823959,157.927383 172.324219,158.763443 
	C172.054062,160.103867 172.187943,161.053131 172.321808,162.002411 
	C172.388809,162.455750 172.455795,162.909103 172.105499,163.828934 
	C171.809784,165.870865 171.931366,167.446289 172.052933,169.021729 
	C171.606857,188.376602 171.160782,207.731476 170.261826,227.688400 
	C169.539886,230.317978 168.916550,232.374359 169.078934,234.366730 
	C169.374695,237.995911 168.141098,239.609009 164.435059,238.979904 
	C164.306992,216.255905 164.197006,193.531784 164.035355,170.808014 
	C164.003601,166.345459 163.772202,161.884323 163.198883,156.944916 
	C162.576706,156.234711 162.339676,156.074295 162.053802,155.986069 
	C162.053802,155.986069 162.001251,156.145599 162.002838,155.786346 
	C162.084457,154.951599 162.164505,154.476120 162.510864,153.951508 
	C162.604111,153.268250 162.431046,152.634109 162.194214,151.614777 
	C162.054337,150.452225 161.978210,149.674866 161.902100,148.897507 
	C162.000610,148.472519 162.099121,148.047531 162.556900,147.258591 
	C162.749344,146.261124 162.582520,145.627609 162.415695,144.994095 
	C162.353226,138.636841 162.290756,132.279602 162.610535,125.392342 
	C163.305359,124.209358 163.617966,123.556389 163.930557,122.903419 
	C163.930557,122.903419 163.980209,122.977081 164.120209,122.908913 
	C164.343689,122.746849 164.515259,122.598427 164.496368,122.567894 
	C164.371811,122.366653 164.206268,122.190804 164.054092,122.006676 
	C163.995499,120.935310 163.936890,119.863953 164.348587,118.408638 
	C165.581284,119.236908 166.193878,120.586121 167.144806,121.625916 
	C168.278625,122.865700 169.702484,123.840248 171.000687,124.929703 
	C171.998596,123.687019 173.845337,122.435524 173.832535,121.203339 
	C173.796646,117.746056 175.984024,117.081703 178.462875,116.403931 
	C178.462875,116.403931 178.495087,116.525047 178.351379,116.976837 
	C178.616776,119.284386 179.025864,121.140137 179.434937,122.995895 
	C179.434937,122.995895 179.865143,123.221924 180.039169,123.714508 
	C180.478088,124.472130 180.742966,124.737160 181.007858,125.002190 
	C181.100098,135.649963 181.192322,146.297745 181.243408,157.807739 
	C181.470215,160.748825 181.738144,162.827713 182.003876,165.294357 
	C183.338379,167.789703 184.675079,169.897278 186.011795,172.004852 
	C185.956024,176.702408 185.900253,181.399963 185.631134,186.646545 
	C185.239044,187.515167 185.311142,187.774994 185.634064,187.975082 
z"/>
<path fill="#517699" opacity="1.000000" stroke="none" 
	d="
M236.568558,193.014954 
	C235.290558,193.202377 234.012543,193.389801 232.590714,193.598312 
	C231.266281,188.490982 230.343094,183.338745 228.513077,178.531738 
	C227.568420,176.050354 225.012558,174.182358 222.846909,172.032532 
	C222.041733,168.239944 221.756180,164.416016 221.016617,160.682022 
	C220.724640,159.207916 219.421036,157.934158 218.578079,156.569183 
	C217.736557,158.048294 216.175415,159.520370 216.160873,161.007568 
	C215.921539,185.468735 215.877594,209.931793 215.787354,234.394440 
	C215.782440,235.725494 216.132431,237.225876 215.631699,238.339050 
	C215.148071,239.414124 213.782394,240.746140 212.794113,240.754333 
	C211.829865,240.762329 210.124680,239.326157 210.009735,238.371658 
	C209.553818,234.585434 209.577148,230.740067 209.451843,226.915665 
	C208.732712,204.966446 208.020218,183.017014 207.310547,161.067490 
	C207.232574,158.655869 207.282578,155.905655 203.717468,156.867569 
	C202.904541,157.086899 202.416031,159.271866 202.170456,160.623413 
	C201.906998,162.073410 202.106018,163.607437 201.762939,165.319611 
	C200.927872,164.344254 200.433060,163.154053 199.908569,161.607864 
	C198.078873,160.472549 196.278870,159.693253 194.478867,158.913940 
	C194.371597,158.489334 194.264343,158.064713 194.158356,156.891022 
	C194.253342,154.224045 194.347061,152.306137 194.444138,150.319809 
	C197.665512,150.156830 200.301239,150.023483 203.393890,149.947968 
	C207.245407,149.564468 210.639999,149.123138 214.034607,148.681808 
	C214.402298,148.748093 214.770004,148.814377 215.598358,149.244904 
	C217.716660,149.721191 219.374298,149.833221 221.496643,149.970795 
	C226.730560,149.996307 231.499741,149.996307 237.039612,149.996307 
	C237.039612,162.797089 237.039612,174.886002 236.985840,187.405945 
	C236.810913,189.562958 236.689728,191.288956 236.568558,193.014954 
z"/>
<path fill="#B6DAF4" opacity="1.000000" stroke="none" 
	d="
M128.091644,186.127548 
	C127.963356,192.071426 127.835068,198.015305 127.226730,204.453522 
	C125.151978,204.969971 123.557281,204.992065 121.961334,204.544632 
	C121.959656,194.635315 122.073540,185.192810 121.850899,175.758270 
	C121.811920,174.106705 120.787292,171.760880 119.479118,170.990997 
	C115.515648,168.658478 111.189400,166.942398 107.004501,164.986145 
	C106.988914,157.995926 106.901352,151.004791 106.988907,144.015869 
	C107.031013,140.655701 106.463989,137.055817 110.980492,135.397873 
	C111.869881,135.071396 112.087425,131.816299 111.931839,129.969360 
	C111.604179,126.079811 112.888168,124.527985 116.944252,124.867218 
	C120.911049,125.198990 124.943619,125.160805 128.917450,124.872841 
	C132.769577,124.593681 134.422699,125.755920 134.038940,129.851028 
	C133.798935,132.412262 132.849182,135.688400 137.140411,136.521896 
	C137.639084,136.618774 137.812698,138.853149 137.976166,140.117340 
	C138.343140,142.955582 136.601227,146.624619 141.288864,147.715805 
	C141.751022,147.823364 141.753494,149.795532 142.017426,150.890656 
	C142.417801,152.551971 142.860352,154.203125 143.659149,156.385315 
	C143.736816,158.149963 143.603546,160.387421 143.117889,160.466721 
	C139.430878,161.068771 140.136230,163.766800 139.916138,166.157547 
	C139.857300,166.796906 139.139328,167.375565 137.810211,169.316360 
	C137.413406,166.449997 137.064255,164.987091 137.035385,163.517899 
	C136.953796,159.364044 137.013992,155.207535 136.998886,151.052170 
	C136.979187,145.638275 134.548981,143.413940 128.091629,143.447784 
	C128.091629,157.665222 128.091629,171.896378 128.091644,186.127548 
z"/>
<path fill="#B6DAF3" opacity="1.000000" stroke="none" 
	d="
M290.842896,209.675079 
	C290.014130,209.727310 289.172852,209.705795 288.358643,209.843842 
	C283.455261,210.675110 281.634827,208.528229 282.527100,202.993835 
	C282.613831,197.949417 282.613831,193.705078 282.613831,189.142685 
	C279.944946,188.953125 277.522583,188.781067 275.074280,188.165649 
	C275.022919,174.041534 274.997528,160.360794 274.972137,146.680038 
	C275.993835,146.277222 277.000488,145.590546 278.040619,145.535431 
	C279.776459,145.443451 281.533691,145.755463 283.781036,145.937912 
	C284.277161,137.862076 281.756470,128.992142 291.766998,124.781006 
	C291.838501,126.147552 291.974152,127.535789 291.974396,128.924042 
	C291.978302,151.020355 291.956818,173.116684 291.967773,195.212997 
	C291.968842,197.430099 291.259125,200.235199 295.558624,200.379395 
	C296.110504,203.438202 296.529114,206.122360 292.569977,206.507950 
	C291.897827,206.573441 291.413818,208.570435 290.842896,209.675079 
z"/>
<path fill="#ADD1E8" opacity="1.000000" stroke="none" 
	d="
M313.730835,242.238831 
	C314.446136,243.402405 315.590912,244.996841 315.263031,246.184845 
	C312.636597,255.701111 310.311981,265.368561 306.713135,274.525269 
	C304.217804,280.874146 300.329163,286.847290 296.200043,292.339508 
	C290.795502,299.528198 284.892792,306.426788 278.562775,312.814362 
	C270.327362,321.124603 259.855865,325.994385 248.938736,329.895691 
	C229.191315,336.952637 209.354172,336.693298 189.448257,330.655182 
	C187.646103,330.108521 185.909866,329.344635 184.084076,328.298828 
	C189.710159,327.591034 195.395218,327.266052 201.542236,327.320862 
	C202.687210,328.465912 203.332825,329.848694 204.059479,329.892670 
	C207.782501,330.118011 211.613541,330.514801 215.246429,329.901489 
	C225.604462,328.152771 236.306503,327.120483 246.087814,323.614929 
	C258.019562,319.338654 268.816742,313.173431 278.140411,303.312012 
	C286.481659,294.489746 292.811249,284.746735 299.347168,274.894226 
	C299.752136,274.283813 299.064819,272.948761 298.885712,271.950867 
	C303.749786,262.127716 308.613861,252.304550 313.730835,242.238831 
z"/>
<path fill="#B6DAF3" opacity="1.000000" stroke="none" 
	d="
M237.039612,186.974915 
	C237.039612,174.886002 237.039612,162.797089 237.039612,149.996307 
	C231.499741,149.996307 226.730560,149.996307 221.471832,149.694794 
	C220.939133,149.028259 220.895966,148.663208 220.852814,148.298172 
	C223.923416,148.344635 225.199875,147.041260 225.036118,143.784241 
	C224.778702,138.665268 225.210114,133.508987 224.896515,128.396317 
	C224.627777,124.014587 225.507980,120.609581 229.829559,118.671371 
	C230.661911,118.298050 231.246338,117.371971 232.299271,116.334297 
	C233.091354,115.673088 233.529312,115.378479 233.967285,115.083870 
	C236.801697,113.585144 239.636108,112.086418 243.024765,110.294632 
	C243.024765,119.497818 243.025665,128.092484 243.024582,136.687149 
	C243.022888,150.139954 243.105148,163.593689 242.960922,177.044968 
	C242.921997,180.675568 244.072296,182.425613 248.355209,182.305313 
	C248.935501,184.817245 249.002182,186.905701 249.030457,189.449387 
	C249.000946,192.971542 249.009842,196.038467 249.018723,199.105408 
	C247.321777,199.186584 245.624847,199.267761 243.482269,198.896362 
	C243.029297,196.662811 242.798889,194.848740 243.057343,193.107224 
	C243.772827,188.286240 242.103500,186.020386 237.039612,186.974915 
z"/>
<path fill="#8EB8D9" opacity="1.000000" stroke="none" 
	d="
M128.544434,186.126007 
	C128.091629,171.896378 128.091629,157.665222 128.091629,143.447784 
	C134.548981,143.413940 136.979187,145.638275 136.998886,151.052170 
	C137.013992,155.207535 136.953796,159.364044 137.035385,163.517899 
	C137.064255,164.987091 137.413406,166.449997 137.810211,169.316360 
	C139.139328,167.375565 139.857300,166.796906 139.916138,166.157547 
	C140.136230,163.766800 139.430878,161.068771 143.117889,160.466721 
	C143.603546,160.387421 143.736816,158.149963 144.046509,156.501251 
	C144.376846,154.416092 144.542328,152.692795 145.061722,151.083755 
	C145.438965,149.915176 146.284439,148.897736 147.792145,147.843506 
	C151.857956,147.806290 155.052704,147.738480 158.247467,147.670654 
	C159.249268,148.067520 160.251053,148.464401 161.577484,148.879395 
	C161.978210,149.674866 162.054337,150.452225 162.121323,151.945374 
	C162.156311,153.107666 162.200424,153.554153 162.244537,154.000641 
	C162.164505,154.476120 162.084457,154.951599 161.919205,155.778915 
	C160.875610,157.407364 159.277481,158.590668 159.075180,159.977585 
	C158.383942,164.716049 158.183517,169.526138 157.129456,174.658951 
	C151.308868,175.005798 146.154648,175.002594 140.777802,175.100037 
	C140.277802,175.399643 140.099213,175.665085 140.012360,176.396973 
	C140.010971,177.863739 140.016571,178.930496 140.011688,180.425095 
	C139.997437,182.563141 139.993652,184.273346 139.989868,185.983566 
	C136.325653,186.030533 132.661453,186.077499 128.544434,186.126007 
z"/>
<path fill="#8AB3D5" opacity="1.000000" stroke="none" 
	d="
M106.959061,165.454147 
	C111.189400,166.942398 115.515648,168.658478 119.479118,170.990997 
	C120.787292,171.760880 121.811920,174.106705 121.850899,175.758270 
	C122.073540,185.192810 121.959656,194.635315 121.713486,204.764755 
	C121.317207,212.941681 121.167526,220.428940 121.017845,227.916214 
	C114.220116,228.833817 118.377563,223.007324 116.034798,220.269714 
	C114.459435,220.108307 112.223267,219.879181 109.083145,219.557449 
	C109.083145,216.217957 109.084175,212.825409 109.082924,209.432846 
	C109.080482,202.798126 109.179901,196.160568 108.998833,189.530716 
	C108.955246,187.934341 107.980270,186.363403 107.008728,184.578873 
	C106.693764,178.225357 106.803688,172.073761 106.959061,165.454147 
z"/>
<path fill="#A5CAE3" opacity="1.000000" stroke="none" 
	d="
M298.607819,272.128510 
	C299.064819,272.948761 299.752136,274.283813 299.347168,274.894226 
	C292.811249,284.746735 286.481659,294.489746 278.140411,303.312012 
	C268.816742,313.173431 258.019562,319.338654 246.087814,323.614929 
	C236.306503,327.120483 225.604462,328.152771 215.246429,329.901489 
	C211.613541,330.514801 207.782501,330.118011 204.059479,329.892670 
	C203.332825,329.848694 202.687210,328.465912 201.978882,327.300964 
	C202.043854,326.595825 202.217377,326.348785 202.692596,326.088898 
	C216.598175,325.786285 229.506729,321.996277 242.048538,316.979614 
	C265.218079,307.711975 283.776733,292.498260 298.607819,272.128510 
z"/>
<path fill="#759FC3" opacity="1.000000" stroke="none" 
	d="
M249.068878,188.994171 
	C249.002182,186.905701 248.935501,184.817245 248.754700,182.290710 
	C248.770325,168.537415 248.900070,155.222214 249.281418,141.335129 
	C249.758377,140.574661 249.911926,140.339233 249.993683,140.056946 
	C254.074539,140.056946 258.155396,140.056946 262.958466,140.056946 
	C262.958466,146.880951 262.958466,153.425201 262.985352,160.905624 
	C263.044708,169.130234 263.077179,176.418671 262.730652,183.759277 
	C258.749756,182.520233 256.681885,183.336960 257.027130,187.614716 
	C257.117584,188.735382 257.015839,189.871552 256.620575,190.994659 
	C253.848846,190.323883 251.458862,189.659027 249.068878,188.994171 
z"/>
<path fill="#B6DAF4" opacity="1.000000" stroke="none" 
	d="
M202.936981,149.890137 
	C200.301239,150.023483 197.665512,150.156830 194.444138,150.319809 
	C194.347061,152.306137 194.253342,154.224045 194.072739,156.573334 
	C192.222580,156.564560 190.459320,156.124420 188.038971,155.520264 
	C188.038971,144.526917 187.975983,133.442703 188.169632,122.362976 
	C188.183716,121.556862 190.013199,120.187637 191.079895,120.102913 
	C194.717682,119.813972 198.391830,119.982704 202.513138,120.459167 
	C202.961777,130.591095 202.949371,140.240616 202.936981,149.890137 
z"/>
<path fill="#4D7296" opacity="1.000000" stroke="none" 
	d="
M199.938263,161.963867 
	C200.433060,163.154053 200.927872,164.344254 201.673340,165.756790 
	C201.977127,167.710342 202.030228,169.441544 201.720337,171.901718 
	C201.559128,178.416977 201.760925,184.203262 201.962723,189.989548 
	C202.047058,205.773010 202.193924,221.556854 202.091858,237.339111 
	C202.084061,238.544785 200.498840,240.510986 199.329712,240.788727 
	C196.261307,241.517685 195.982925,239.159836 195.942062,236.782104 
	C195.667969,220.831497 195.347076,204.881683 195.419800,188.248016 
	C196.195007,185.878830 196.890671,184.200851 196.933655,182.506317 
	C197.074860,176.938522 197.013916,171.364365 196.957123,165.793411 
	C196.935303,163.651123 197.000488,161.731262 199.938263,161.963867 
z"/>
<path fill="#B5D8F0" opacity="1.000000" stroke="none" 
	d="
M101.919464,183.658203 
	C91.178345,184.487686 91.178566,184.487686 91.170853,195.621979 
	C91.169601,197.437927 91.165421,199.253860 90.736664,201.544083 
	C89.507408,202.034912 88.704079,202.051453 87.900757,202.067993 
	C86.297401,201.986816 84.694046,201.905655 82.306549,201.784775 
	C82.306549,198.700302 82.306549,195.722855 82.412155,192.290741 
	C86.724457,192.724625 88.145821,190.942047 88.008072,186.778442 
	C87.778374,179.835846 88.074875,172.876984 87.911987,165.930542 
	C87.840439,162.879150 88.938736,161.881088 91.940559,161.948242 
	C104.284599,162.224396 101.681992,160.474472 101.951721,171.761887 
	C102.042618,175.565613 101.947372,179.373779 101.919464,183.658203 
z"/>
<path fill="#90B8D9" opacity="1.000000" stroke="none" 
	d="
M263.109619,183.707123 
	C263.077179,176.418671 263.044708,169.130234 263.043243,161.364243 
	C265.162506,161.647064 267.250763,162.407410 268.383575,162.819870 
	C270.522247,157.224930 272.453461,152.172745 274.678406,146.900299 
	C274.997528,160.360794 275.022919,174.041534 274.653503,188.286255 
	C273.495087,190.021683 272.121521,191.169281 272.074615,192.368759 
	C271.884033,197.242661 272.100464,202.132477 272.166840,207.016434 
	C271.900909,208.319458 271.634979,209.622482 271.369080,210.925507 
	C270.652374,210.904373 269.935699,210.883224 269.218994,210.862091 
	C268.638153,202.583847 269.169922,194.230972 268.902527,185.209442 
	C268.544647,184.316330 268.270508,184.139893 267.996368,183.963455 
	C267.551147,183.941208 267.105957,183.918976 265.965973,183.891983 
	C264.550690,183.827194 263.830139,183.767151 263.109619,183.707123 
z"/>
<path fill="#8EB8D9" opacity="1.000000" stroke="none" 
	d="
M203.393890,149.947968 
	C202.949371,140.240616 202.961777,130.591095 202.979218,120.473633 
	C204.032059,117.529739 205.031326,115.031471 206.154938,112.590439 
	C206.530090,111.775452 207.223267,111.106865 207.771057,110.371353 
	C208.481857,111.112854 209.397476,111.742584 209.872437,112.612823 
	C215.929398,123.710571 213.668747,135.818893 214.039185,148.145248 
	C210.639999,149.123138 207.245407,149.564468 203.393890,149.947968 
z"/>
<path fill="#517597" opacity="1.000000" stroke="none" 
	d="
M178.373489,116.064590 
	C175.984024,117.081703 173.796646,117.746056 173.832535,121.203339 
	C173.845337,122.435524 171.998596,123.687019 171.000687,124.929703 
	C169.702484,123.840248 168.278625,122.865700 167.144806,121.625916 
	C166.193878,120.586121 165.581284,119.236908 164.434113,118.013519 
	C166.159348,111.156677 168.269363,104.311012 170.966293,97.230942 
	C171.937012,97.034126 172.320831,97.071709 172.704636,97.109283 
	C173.209229,97.725418 173.993835,98.269417 174.174103,98.969109 
	C175.608841,104.537811 176.928879,110.136070 178.373489,116.064590 
z"/>
<path fill="#8AB3D5" opacity="1.000000" stroke="none" 
	d="
M291.300568,209.769653 
	C291.413818,208.570435 291.897827,206.573441 292.569977,206.507950 
	C296.529114,206.122360 296.110504,203.438202 295.977661,200.380371 
	C296.040039,194.328583 296.132263,188.704300 296.307007,182.634979 
	C299.730469,181.420380 301.193268,182.467514 301.063965,186.164749 
	C300.834625,192.722275 301.013428,199.294083 301.007233,206.306000 
	C300.079834,207.809479 299.319824,209.526337 298.220306,209.781769 
	C296.170532,210.257980 293.923309,209.884216 291.300568,209.769653 
z"/>
<path fill="#739DC0" opacity="1.000000" stroke="none" 
	d="
M141.000427,174.999390 
	C146.154648,175.002594 151.308868,175.005798 156.972565,175.033905 
	C157.199051,178.485550 156.916046,181.912292 155.967102,185.671585 
	C152.866470,185.997314 150.431793,185.990479 147.957672,185.630768 
	C145.286209,183.517670 142.654190,181.757477 140.022171,179.997269 
	C140.016571,178.930496 140.010971,177.863739 140.227890,176.288086 
	C140.718689,175.579178 140.902023,175.319244 141.000427,174.999390 
z"/>
<path fill="#51789D" opacity="1.000000" stroke="none" 
	d="
M147.997116,185.983658 
	C150.431793,185.990479 152.866470,185.997314 155.762497,186.018799 
	C155.855560,190.747772 155.487274,195.462097 155.001129,200.578522 
	C152.058838,198.112747 150.009552,200.632401 147.435394,201.545471 
	C147.383179,196.054855 147.690155,191.019257 147.997116,185.983658 
z"/>
<path fill="#B5D8F0" opacity="1.000000" stroke="none" 
	d="
M158.108505,147.340759 
	C155.052704,147.738480 151.857956,147.806290 148.184067,147.768738 
	C148.880768,143.275391 150.056595,138.887390 151.232422,134.499374 
	C151.615799,134.421646 151.999176,134.343918 152.382553,134.266190 
	C154.244888,138.514420 156.107224,142.762650 158.108505,147.340759 
z"/>
<path fill="#6A8DAD" opacity="1.000000" stroke="none" 
	d="
M199.908569,161.607864 
	C197.000488,161.731262 196.935303,163.651123 196.957123,165.793411 
	C197.013916,171.364365 197.074860,176.938522 196.933655,182.506317 
	C196.890671,184.200851 196.195007,185.878830 195.476456,187.782547 
	C194.847092,178.611389 194.539536,169.222092 194.355408,159.373352 
	C196.278870,159.693253 198.078873,160.472549 199.908569,161.607864 
z"/>
<path fill="#ADD1E8" opacity="1.000000" stroke="none" 
	d="
M182.006088,164.906586 
	C181.738144,162.827713 181.470215,160.748825 181.309631,158.261536 
	C182.818680,158.087112 184.220337,158.321106 186.025879,158.622528 
	C186.025879,160.617233 186.025879,162.373764 185.756775,164.534698 
	C185.487671,164.939087 184.998795,164.992676 184.627548,164.936813 
	C183.506226,164.889496 182.756165,164.898041 182.006088,164.906586 
z"/>
<path fill="#7EA5C6" opacity="1.000000" stroke="none" 
	d="
M172.757217,96.636101 
	C172.320831,97.071709 171.937012,97.034126 171.263672,96.976578 
	C170.974121,91.509254 170.974121,86.061897 170.974121,80.614548 
	C171.586014,80.582565 172.197906,80.550583 172.809799,80.518608 
	C172.809799,85.733376 172.809799,90.948151 172.757217,96.636101 
z"/>
<path fill="#517597" opacity="1.000000" stroke="none" 
	d="
M164.448120,239.343872 
	C168.141098,239.609009 169.374695,237.995911 169.078934,234.366730 
	C168.916550,232.374359 169.539886,230.317978 170.152588,228.144196 
	C170.565582,230.918518 170.776123,233.844177 170.671722,236.758545 
	C170.508774,241.306778 168.987183,241.979355 164.448120,239.343872 
z"/>
<path fill="#C3E5F8" opacity="1.000000" stroke="none" 
	d="
M233.971161,114.615730 
	C233.529312,115.378479 233.091354,115.673088 232.378754,115.995987 
	C232.104095,111.909576 232.104095,107.794868 232.104095,103.680168 
	C232.727737,103.639549 233.351379,103.598930 233.975021,103.558311 
	C233.975021,107.088074 233.975021,110.617828 233.971161,114.615730 
z"/>
<path fill="#517597" opacity="1.000000" stroke="none" 
	d="
M182.003876,165.294357 
	C182.756165,164.898041 183.506226,164.889496 184.706924,165.145737 
	C185.312027,165.679153 185.532257,165.873123 185.818253,165.992447 
	C186.000427,167.816406 186.182602,169.640381 186.188293,171.734589 
	C184.675079,169.897278 183.338379,167.789703 182.003876,165.294357 
z"/>
<path fill="#517699" opacity="1.000000" stroke="none" 
	d="
M202.054535,189.529968 
	C201.760925,184.203262 201.559128,178.416977 201.637695,172.327560 
	C201.994171,177.706406 202.070267,183.388397 202.054535,189.529968 
z"/>
<path fill="#517597" opacity="1.000000" stroke="none" 
	d="
M179.478622,122.602043 
	C179.025864,121.140137 178.616776,119.284386 178.385712,117.029266 
	C178.883255,118.489326 179.202774,120.348763 179.478622,122.602043 
z"/>
<path fill="#8EB8D9" opacity="1.000000" stroke="none" 
	d="
M220.409027,148.242767 
	C220.895966,148.663208 220.939133,149.028259 221.007111,149.669281 
	C219.374298,149.833221 217.716660,149.721191 215.855988,149.356750 
	C217.090378,148.798706 218.527802,148.493042 220.409027,148.242767 
z"/>
<path fill="#517597" opacity="1.000000" stroke="none" 
	d="
M172.216644,168.697052 
	C171.931366,167.446289 171.809784,165.870865 171.968399,164.150726 
	C172.292511,165.461487 172.336441,166.916931 172.216644,168.697052 
z"/>
<path fill="#517597" opacity="1.000000" stroke="none" 
	d="
M173.406189,156.931503 
	C174.276337,156.668686 175.537292,156.299835 176.900085,156.238388 
	C175.933609,156.639023 174.865326,156.732254 173.406189,156.931503 
z"/>
<path fill="#517597" opacity="1.000000" stroke="none" 
	d="
M172.470551,161.643784 
	C172.187943,161.053131 172.054062,160.103867 172.184250,159.075439 
	C172.505310,159.759232 172.562286,160.522202 172.470551,161.643784 
z"/>
<path fill="#517597" opacity="1.000000" stroke="none" 
	d="
M162.321045,145.324829 
	C162.582520,145.627609 162.749344,146.261124 162.665497,146.949860 
	C162.352020,146.555252 162.289215,146.105392 162.321045,145.324829 
z"/>
<path fill="#517699" opacity="1.000000" stroke="none" 
	d="
M222.663788,175.235123 
	C222.996292,175.580734 223.202454,176.170898 223.198196,176.882629 
	C222.837677,176.496017 222.687576,175.987839 222.663788,175.235123 
z"/>
<path fill="#517699" opacity="1.000000" stroke="none" 
	d="
M224.884628,198.385101 
	C225.182098,199.152374 225.419861,200.316223 225.430664,201.714844 
	C225.077438,200.893631 224.951172,199.837646 224.884628,198.385101 
z"/>
<path fill="#517597" opacity="1.000000" stroke="none" 
	d="
M163.681488,123.039604 
	C163.617966,123.556389 163.305359,124.209358 162.708160,124.934464 
	C162.759842,124.396324 163.096130,123.786057 163.681488,123.039604 
z"/>
<path fill="#6182A0" opacity="1.000000" stroke="none" 
	d="
M178.232666,239.258972 
	C178.564972,239.161758 178.753342,239.387863 178.860413,239.917816 
	C178.642410,239.930725 178.412262,239.717621 178.232666,239.258972 
z"/>
<path fill="#6182A0" opacity="1.000000" stroke="none" 
	d="
M178.950180,240.360840 
	C179.180420,240.086227 179.466034,240.173935 179.849228,240.573395 
	C179.672363,240.703232 179.358627,240.649231 178.950180,240.360840 
z"/>
<path fill="#517597" opacity="1.000000" stroke="none" 
	d="
M162.066544,156.241028 
	C162.339676,156.074295 162.576706,156.234711 162.871674,156.656372 
	C162.678726,156.728973 162.378998,156.612473 162.066544,156.241028 
z"/>
<path fill="#6182A0" opacity="1.000000" stroke="none" 
	d="
M185.904068,165.750092 
	C185.532257,165.873123 185.312027,165.679153 185.078171,165.201599 
	C184.998795,164.992676 185.487671,164.939087 185.731903,164.966431 
	C185.980713,165.165085 185.985291,165.336411 185.904068,165.750092 
z"/>
<path fill="#7EA5C6" opacity="1.000000" stroke="none" 
	d="
M249.749222,140.088501 
	C249.911926,140.339233 249.758377,140.574661 249.348877,140.869293 
	C249.061172,140.604019 249.174515,140.318924 249.749222,140.088501 
z"/>
<path fill="#517597" opacity="1.000000" stroke="none" 
	d="
M181.023346,124.693451 
	C180.742966,124.737160 180.478088,124.472130 180.163452,123.923309 
	C180.422089,123.887917 180.730469,124.136314 181.023346,124.693451 
z"/>
<path fill="#517597" opacity="1.000000" stroke="none" 
	d="
M163.968323,122.235550 
	C164.206268,122.190804 164.371811,122.366653 164.496368,122.567894 
	C164.515259,122.598427 164.343689,122.746849 164.077438,122.896927 
	C163.894669,122.953117 163.882538,122.464424 163.968323,122.235550 
z"/>
<path fill="#6182A0" opacity="1.000000" stroke="none" 
	d="
M185.724274,187.739502 
	C185.311142,187.774994 185.239044,187.515167 185.547974,187.106857 
	C185.723618,187.180069 185.769058,187.341995 185.724274,187.739502 
z"/>
<path fill="#517699" opacity="1.000000" stroke="none" 
	d="
M224.000122,190.256348 
	C224.179031,190.265778 224.306290,190.525391 224.285416,190.883118 
	C224.074341,190.822998 224.011414,190.664764 224.000122,190.256348 
z"/>
<path fill="#98BFDE" opacity="1.000000" stroke="none" 
	d="
M121.459412,227.970337 
	C121.167526,220.428940 121.317207,212.941681 121.714729,205.234283 
	C123.557281,204.992065 125.151978,204.969971 127.128983,204.900726 
	C127.511284,212.416229 127.511284,219.978882 127.511284,228.024445 
	C125.464081,228.024445 123.682526,228.024445 121.459412,227.970337 
z"/>
<path fill="#759FC3" opacity="1.000000" stroke="none" 
	d="
M147.957672,185.630768 
	C147.690155,191.019257 147.383179,196.054855 147.079056,201.560028 
	C143.819214,202.529968 142.635605,201.094406 142.891357,197.882004 
	C143.099396,195.269119 143.171478,192.596130 142.838989,190.009567 
	C142.663818,188.646729 141.493774,187.411789 140.381409,186.051331 
	C139.993652,184.273346 139.997437,182.563141 140.011688,180.425095 
	C142.654190,181.757477 145.286209,183.517670 147.957672,185.630768 
z"/>
<path fill="#90B8D9" opacity="1.000000" stroke="none" 
	d="
M87.937988,202.529312 
	C88.704079,202.051453 89.507408,202.034912 90.712898,202.010223 
	C91.326225,207.235901 91.624901,212.469421 91.640556,217.703796 
	C91.642570,218.377045 90.175789,219.054672 89.389404,219.730255 
	C88.945534,218.950668 88.141022,218.182068 88.116875,217.389694 
	C87.970695,212.593018 88.002747,207.790924 87.937988,202.529312 
z"/>
<path fill="#51789D" opacity="1.000000" stroke="none" 
	d="
M262.730652,183.759277 
	C263.830139,183.767151 264.550690,183.827194 265.632324,183.918167 
	C265.328735,189.631149 264.633728,195.309875 264.008942,200.996307 
	C263.516144,205.481567 263.286713,210.073532 257.568787,211.513489 
	C257.079132,207.751114 257.024658,204.380814 257.000214,200.556564 
	C257.020935,197.068604 257.011627,194.034607 257.002319,191.000610 
	C257.015839,189.871552 257.117584,188.735382 257.027130,187.614716 
	C256.681885,183.336960 258.749756,182.520233 262.730652,183.759277 
z"/>
<path fill="#51789D" opacity="1.000000" stroke="none" 
	d="
M272.510010,206.967834 
	C272.100464,202.132477 271.884033,197.242661 272.074615,192.368759 
	C272.121521,191.169281 273.495087,190.021683 274.679474,188.729630 
	C277.522583,188.781067 279.944946,188.953125 282.613831,189.142685 
	C282.613831,193.705078 282.613831,197.949417 282.484009,202.572678 
	C279.187195,204.274139 276.020203,205.596680 272.510010,206.967834 
z"/>
<path fill="#90B8D9" opacity="1.000000" stroke="none" 
	d="
M236.985840,187.405945 
	C242.103500,186.020386 243.772827,188.286240 243.057343,193.107224 
	C242.798889,194.848740 243.029297,196.662811 243.062851,198.950226 
	C243.081757,201.263931 242.905121,203.089844 243.101746,204.874634 
	C243.534302,208.801270 241.892136,210.406326 237.546707,209.489136 
	C236.950333,208.718369 236.833282,208.295670 236.716217,207.872971 
	C236.734879,203.224747 236.753540,198.576523 236.670380,193.471619 
	C236.689728,191.288956 236.810913,189.562958 236.985840,187.405945 
z"/>
<path fill="#7EA5C6" opacity="1.000000" stroke="none" 
	d="
M256.620544,190.994659 
	C257.011627,194.034607 257.020935,197.068604 256.601685,200.554855 
	C255.106888,201.006424 254.040680,201.005722 252.974472,201.005020 
	C251.796524,200.526367 250.618576,200.047699 249.229675,199.337219 
	C249.009842,196.038467 249.000946,192.971542 249.030472,189.449387 
	C251.458862,189.659027 253.848846,190.323883 256.620544,190.994659 
z"/>
<path fill="#8AB3D5" opacity="1.000000" stroke="none" 
	d="
M252.956955,201.470032 
	C254.040680,201.005722 255.106888,201.006424 256.571655,201.008820 
	C257.024658,204.380814 257.079132,207.751114 257.229187,211.574371 
	C256.519073,213.018814 255.713409,214.010269 254.907745,215.001709 
	C254.240021,213.924683 253.082870,212.885101 252.997070,211.763535 
	C252.747726,208.504974 252.927795,205.213562 252.956955,201.470032 
z"/>
<path fill="#6A8DAD" opacity="1.000000" stroke="none" 
	d="
M236.439636,207.961975 
	C236.833282,208.295670 236.950333,208.718369 237.138229,209.459366 
	C236.652039,209.663971 236.095001,209.550278 235.537964,209.436584 
	C235.746338,208.974716 235.954681,208.512848 236.439636,207.961975 
z"/>
<path fill="#51789D" opacity="1.000000" stroke="none" 
	d="
M268.090912,184.182358 
	C268.270508,184.139893 268.544647,184.316330 268.867004,184.741364 
	C268.606934,184.874405 268.363647,184.678177 268.090912,184.182358 
z"/>
<path fill="#517597" opacity="1.000000" stroke="none" 
	d="
M162.510864,153.951508 
	C162.200424,153.554153 162.156311,153.107666 162.185074,152.330566 
	C162.431046,152.634109 162.604111,153.268250 162.510864,153.951508 
z"/>
<path fill="#759FC3" opacity="1.000000" stroke="none" 
	d="
M140.777802,175.100037 
	C140.902023,175.319244 140.718689,175.579178 140.234894,175.888092 
	C140.099213,175.665085 140.277802,175.399643 140.777802,175.100037 
z"/>
</svg>