<?xml version="1.0" standalone="no"?>
<!DOCTYPE svg PUBLIC "-//W3C//DTD SVG 20010904//EN"
 "http://www.w3.org/TR/2001/REC-SVG-20010904/DTD/svg10.dtd">
<svg version="1.0" xmlns="http://www.w3.org/2000/svg"
 width="500.000000pt" height="500.000000pt" viewBox="0 0 500.000000 500.000000"
 preserveAspectRatio="xMidYMid meet">
<metadata>
Created by potrace 1.14, written by Peter Selinger 2001-2017
</metadata>
<g transform="translate(0.000000,500.000000) scale(0.100000,-0.100000)"
fill="#000000" stroke="none">
<path d="M2270 4939 c-41 -3 -91 -9 -110 -12 -19 -3 -57 -9 -85 -13 -258 -36
-583 -150 -830 -292 -63 -36 -196 -122 -205 -132 -3 -4 -25 -20 -50 -37 -141
-96 -363 -317 -490 -488 -268 -361 -422 -742 -479 -1180 -20 -156 -26 -434
-11 -530 4 -27 11 -75 14 -105 4 -30 9 -75 12 -100 9 -69 62 -274 99 -380 78
-223 156 -380 287 -575 147 -219 280 -362 537 -577 52 -44 212 -148 316 -206
169 -94 376 -180 526 -218 35 -8 89 -22 119 -30 58 -15 98 -23 140 -29 14 -2
66 -9 115 -16 100 -14 408 -18 525 -7 470 45 915 219 1281 500 295 226 561
551 713 873 21 44 43 89 48 99 44 83 150 428 163 526 3 25 8 52 10 60 2 8 7
40 10 70 4 30 10 87 15 125 12 100 4 423 -13 535 -9 52 -18 114 -22 137 -3 23
-17 84 -31 135 -14 51 -27 103 -29 114 -24 108 -171 443 -236 536 -11 14 -19
29 -19 32 0 11 -51 86 -139 205 -73 99 -290 331 -386 411 -135 114 -333 243
-490 318 -49 24 -101 50 -115 57 -88 45 -412 144 -525 160 -22 3 -62 10 -90
15 -150 27 -402 36 -575 19z m420 -439 c47 -6 104 -16 128 -21 24 -5 60 -11
81 -14 47 -6 209 -55 316 -96 307 -118 631 -358 841 -624 35 -44 70 -87 79
-96 8 -9 15 -19 15 -23 0 -4 11 -22 24 -39 51 -68 128 -214 180 -343 49 -119
108 -321 110 -373 l1 -45 -77 -1 c-42 0 -80 -4 -85 -8 -4 -5 -8 -32 -8 -60 l0
-52 -91 3 -91 4 0 -149 c0 -82 -2 -154 -6 -160 -8 -13 -47 -10 -55 4 -4 6 -6
275 -5 598 l1 587 -41 -38 c-91 -87 -92 -89 -94 -188 -1 -50 -2 -99 -2 -109
-1 -17 -7 -18 -64 -12 l-62 7 -37 -67 c-33 -59 -38 -76 -40 -146 -3 -88 -2
-87 -80 -48 l-38 19 0 163 0 162 -107 0 -108 -1 -2 -159 c-1 -88 -2 -236 -2
-328 l-1 -168 -39 3 c-26 1 -41 7 -43 17 -2 9 -3 260 -2 559 0 298 -3 542 -7
542 -4 0 -29 -16 -55 -35 -27 -19 -57 -39 -66 -45 -21 -12 -19 -18 -23 109 -1
54 -6 86 -13 89 -9 3 -12 -29 -12 -115 l-1 -118 -57 -36 -58 -37 0 -197 c1
-108 -1 -200 -4 -204 -3 -4 -39 -7 -80 -6 l-75 0 -3 218 c-2 206 -4 219 -21
224 -13 3 -18 12 -16 24 2 12 -2 19 -11 19 -13 0 -19 34 -15 83 1 9 -4 17 -12
17 -8 0 -14 12 -14 33 0 17 -1 87 -2 155 0 67 -4 122 -8 122 -5 0 -9 -68 -9
-151 -1 -102 -6 -154 -14 -159 -6 -4 -10 -11 -9 -16 1 -5 1 -26 0 -46 -1 -27
-6 -38 -16 -38 -8 0 -15 -9 -15 -20 0 -23 6 -22 -135 -24 l-110 -1 -5 -75 c-3
-41 -3 -172 0 -290 l5 -215 27 3 c15 2 35 -1 46 -7 23 -12 20 48 37 -796 4
-198 8 -390 9 -427 0 -37 6 -72 12 -78 6 -6 29 -10 50 -8 l39 3 1 640 c1 352
2 648 3 658 1 12 9 17 30 17 17 0 33 -5 36 -10 7 -11 9 -59 20 -390 11 -337
14 -433 20 -660 3 -124 8 -233 11 -242 4 -13 16 -18 45 -18 21 0 40 3 40 8 3
13 8 487 10 897 1 283 5 402 13 407 18 12 56 9 57 -4 0 -7 2 -22 5 -33 2 -11
6 -54 10 -95 3 -41 7 -91 9 -110 2 -19 7 -73 10 -120 3 -47 8 -101 10 -120 2
-19 7 -64 11 -100 3 -36 8 -78 10 -95 1 -16 6 -61 9 -100 3 -38 8 -83 10 -100
2 -16 6 -70 10 -120 3 -49 8 -119 11 -155 18 -251 23 -338 24 -420 2 -211 -37
-304 -197 -463 -110 -109 -127 -131 -163 -210 -36 -79 -43 -127 -44 -284 l-1
-123 -65 -1 c-120 -2 -323 1 -327 4 -2 2 -5 67 -7 143 -6 235 -40 306 -230
496 -71 71 -103 111 -122 155 -50 109 -54 143 -49 343 2 102 6 201 9 220 2 19
7 85 11 147 3 61 8 122 10 135 2 13 6 61 9 108 4 47 9 112 12 145 4 57 9 109
19 239 2 32 7 75 9 95 15 111 21 173 31 321 4 52 9 98 12 103 2 4 17 7 34 7
16 0 30 -3 30 -7 1 -5 3 -296 5 -648 2 -352 6 -645 8 -652 6 -14 82 -18 90 -5
2 4 7 133 11 287 10 409 20 770 29 970 2 40 13 55 41 55 13 0 27 -6 32 -12 4
-7 8 -299 9 -649 0 -349 4 -641 8 -647 10 -16 71 -15 83 1 6 6 11 71 13 142 4
209 8 367 16 570 8 213 12 544 7 560 -2 6 -19 9 -38 7 -34 -4 -35 -3 -36 29 0
19 0 141 0 272 -1 196 -3 239 -15 244 -10 3 -14 22 -14 59 0 30 -4 54 -10 54
-5 0 -10 14 -10 31 0 17 -4 28 -10 24 -19 -12 -41 58 -47 146 -4 65 -10 89
-19 89 -11 0 -14 28 -14 135 0 102 -3 135 -13 135 -9 0 -12 -31 -12 -131 0
-103 -3 -132 -14 -139 -9 -5 -15 -29 -17 -71 -4 -92 -16 -133 -50 -166 -7 -7
-10 -22 -7 -33 4 -14 0 -20 -11 -20 -10 0 -17 -7 -15 -17 4 -47 -2 -104 -11
-98 -12 7 -12 8 -11 -200 0 -210 -3 -218 -55 -170 -15 14 -23 25 -19 25 4 0 0
8 -9 19 -9 10 -16 22 -14 27 6 22 -13 73 -28 76 -13 2 -18 14 -19 43 -1 22 -3
53 -4 69 -3 61 -18 -2 -20 -86 -1 -17 -7 -28 -15 -28 -17 0 -26 -22 -26 -66 0
-19 -4 -34 -10 -34 -5 0 -10 -9 -10 -21 0 -12 -8 -23 -19 -26 -17 -4 -19 -13
-16 -64 2 -51 0 -59 -17 -65 -28 -8 -30 -3 -31 70 0 41 -5 66 -11 65 -54 -6
-55 -4 -53 86 1 47 -1 86 -5 86 -5 1 -17 2 -27 3 -31 2 -35 13 -33 96 l1 80
-174 0 -174 0 0 -80 c0 -44 -2 -83 -5 -88 -3 -5 -17 -8 -31 -7 -20 3 -25 -1
-25 -19 0 -12 -4 -26 -10 -32 -6 -6 -11 -146 -12 -359 l-3 -350 -28 -1 c-15
-1 -31 4 -34 9 -3 6 -7 85 -7 176 l-1 166 -110 0 -110 0 -2 -160 c0 -88 -2
-194 -2 -235 l-1 -76 -38 1 -37 1 -2 225 c-1 123 -2 230 -2 237 -1 9 -28 12
-100 12 l-98 0 1 -381 c1 -436 11 -396 -99 -391 l-67 4 5 256 c5 235 8 269 35
404 93 449 318 832 667 1133 283 245 636 410 1010 472 180 30 403 35 565 13z"/>
</g>
</svg>
